<?xml version="1.0" encoding="UTF-8"?>
<svg width="32px" height="32px" viewBox="0 0 32 32" version="1.1" xmlns="http://www.w3.org/2000/svg" xmlns:xlink="http://www.w3.org/1999/xlink">
    <!-- Generator: Sketch 55.2 (78181) - https://sketchapp.com -->
    <title>alert_32x32</title>
    <desc>Created with Sketch.</desc>
    <g id="alert_32x32" stroke="none" stroke-width="1" fill="none" fill-rule="evenodd">
        <path d="M15.9858778,2 C16.6684334,2 17.221754,2.5533206 17.221754,3.23587616 C17.221754,3.24055732 17.2217274,3.24523844 17.2216742,3.2499193 L16.9971124,23.0113629 C16.9908872,23.5591799 16.5450293,24 15.9971769,24 L15.9745788,24 C15.4267264,24 14.9808685,23.5591799 14.9746433,23.0113629 L14.7500815,3.2499193 C14.7423257,2.56740781 15.2893232,2.0078356 15.9718347,2.00007979 C15.9765156,2.0000266 15.9811967,2 15.9858778,2 Z M16,30 C15.0335017,30 14.25,29.2164983 14.25,28.25 C14.25,27.2835017 15.0335017,26.5 16,26.5 C16.9664983,26.5 17.75,27.2835017 17.75,28.25 C17.75,29.2164983 16.9664983,30 16,30 Z" id="Path" fill="#000000" fill-rule="nonzero"></path>
    </g>
</svg>