<?xml version="1.0" encoding="UTF-8"?>
<svg width="32px" height="32px" viewBox="0 0 32 32" version="1.1" xmlns="http://www.w3.org/2000/svg" xmlns:xlink="http://www.w3.org/1999/xlink">
    <!-- Generator: Sketch 55.2 (78181) - https://sketchapp.com -->
    <title>apps_32x32</title>
    <desc>Created with Sketch.</desc>
    <g id="apps_32x32" stroke="none" stroke-width="1" fill="none" fill-rule="evenodd">
        <path d="M23,21 L27,21 C28.1045695,21 29,21.8954305 29,23 L29,27 C29,28.1045695 28.1045695,29 27,29 L23,29 C21.8954305,29 21,28.1045695 21,27 L21,23 C21,21.8954305 21.8954305,21 23,21 Z M5,3 L9,3 C10.1045695,3 11,3.8954305 11,5 L11,9 C11,10.1045695 10.1045695,11 9,11 L5,11 C3.8954305,11 3,10.1045695 3,9 L3,5 C3,3.8954305 3.8954305,3 5,3 Z M14,3 L18,3 C19.1045695,3 20,3.8954305 20,5 L20,9 C20,10.1045695 19.1045695,11 18,11 L14,11 C12.8954305,11 12,10.1045695 12,9 L12,5 C12,3.8954305 12.8954305,3 14,3 Z M23,3 L27,3 C28.1045695,3 29,3.8954305 29,5 L29,9 C29,10.1045695 28.1045695,11 27,11 L23,11 C21.8954305,11 21,10.1045695 21,9 L21,5 C21,3.8954305 21.8954305,3 23,3 Z M5,12 L9,12 C10.1045695,12 11,12.8954305 11,14 L11,18 C11,19.1045695 10.1045695,20 9,20 L5,20 C3.8954305,20 3,19.1045695 3,18 L3,14 C3,12.8954305 3.8954305,12 5,12 Z M14,12 L18,12 C19.1045695,12 20,12.8954305 20,14 L20,18 C20,19.1045695 19.1045695,20 18,20 L14,20 C12.8954305,20 12,19.1045695 12,18 L12,14 C12,12.8954305 12.8954305,12 14,12 Z M23,12 L27,12 C28.1045695,12 29,12.8954305 29,14 L29,18 C29,19.1045695 28.1045695,20 27,20 L23,20 C21.8954305,20 21,19.1045695 21,18 L21,14 C21,12.8954305 21.8954305,12 23,12 Z M5,21 L9,21 C10.1045695,21 11,21.8954305 11,23 L11,27 C11,28.1045695 10.1045695,29 9,29 L5,29 C3.8954305,29 3,28.1045695 3,27 L3,23 C3,21.8954305 3.8954305,21 5,21 Z M14,21 L18,21 C19.1045695,21 20,21.8954305 20,23 L20,27 C20,28.1045695 19.1045695,29 18,29 L14,29 C12.8954305,29 12,28.1045695 12,27 L12,23 C12,21.8954305 12.8954305,21 14,21 Z M5,5 L5,9 L9,9 L9,5 L5,5 Z M14,5 L14,9 L18,9 L18,5 L14,5 Z M23,5 L23,9 L27,9 L27,5 L23,5 Z M5,14 L5,18 L9,18 L9,14 L5,14 Z M14,14 L14,18 L18,18 L18,14 L14,14 Z M23,14 L23,18 L27,18 L27,14 L23,14 Z M5,23 L5,27 L9,27 L9,23 L5,23 Z M14,23 L14,27 L18,27 L18,23 L14,23 Z M23,23 L23,27 L27,27 L27,23 L23,23 Z" id="Path" fill="#000000" fill-rule="nonzero"></path>
    </g>
</svg>