<?xml version="1.0" encoding="UTF-8"?>
<svg width="32px" height="32px" viewBox="0 0 32 32" version="1.1" xmlns="http://www.w3.org/2000/svg" xmlns:xlink="http://www.w3.org/1999/xlink">
    <!-- Generator: Sketch 55.2 (78181) - https://sketchapp.com -->
    <title>arrow-up_32x32</title>
    <desc>Created with Sketch.</desc>
    <g id="arrow-up_32x32" stroke="none" stroke-width="1" fill="none" fill-rule="evenodd">
        <path d="M14.9989107,6.41564057 L4.70709518,16.7071184 C4.31656448,17.0976363 3.6833995,17.0976259 3.29288162,16.7070952 C2.90236373,16.3165645 2.90237412,15.6833995 3.29290482,15.2928816 L15.260081,3.32609815 C15.4429544,3.1257193 15.7062509,3 15.9989107,3 C16.2915384,3 16.5548093,3.12569173 16.7376803,3.32603223 L28.707031,15.2928174 C29.0975971,15.6832999 29.097665,16.3164648 28.7071826,16.707031 C28.3167001,17.0975971 27.6835352,17.097665 27.292969,16.7071826 L16.9989107,6.4153307 L16.9989107,28 C16.9989107,28.5522847 16.5511955,29 15.9989107,29 C15.446626,29 14.9989107,28.5522847 14.9989107,28 L14.9989107,6.41564057 Z" id="Path" fill="#000000" fill-rule="nonzero"></path>
    </g>
</svg>