<?xml version="1.0" encoding="UTF-8"?>
<svg width="32px" height="32px" viewBox="0 0 32 32" version="1.1" xmlns="http://www.w3.org/2000/svg" xmlns:xlink="http://www.w3.org/1999/xlink">
    <!-- Generator: Sketch 55.2 (78181) - https://sketchapp.com -->
    <title>arrow-down_32x32</title>
    <desc>Created with Sketch.</desc>
    <g id="arrow-down_32x32" stroke="none" stroke-width="1" fill="none" fill-rule="evenodd">
        <path d="M16.7344306,28.6772167 C16.5616262,28.8641255 16.3183661,28.9849335 16.0468366,28.9974415 C15.7751787,29.0103248 15.4992639,28.9130769 15.2918155,28.7056354 L3.29290482,16.7071184 C2.90237412,16.3166005 2.90236373,15.6834355 3.29288162,15.2929048 C3.6833995,14.9023741 4.31656448,14.9023637 4.70709518,15.2928816 L14.9998905,25.5853391 L14.9989107,4.00004539 C14.9988857,3.44776064 15.4465806,3 15.9988653,3 C16.5511501,3 16.9988857,3.44766986 16.9989107,3.99995461 L16.9998904,25.5836898 L27.292969,15.2928174 C27.6835352,14.902335 28.3167001,14.9024029 28.7071826,15.292969 C29.097665,15.6835352 29.0975971,16.3167001 28.707031,16.7071826 L16.7344306,28.6772167 Z" id="Path" fill="#000000" fill-rule="nonzero"></path>
    </g>
</svg>