<?xml version="1.0" encoding="UTF-8"?>
<svg width="32px" height="32px" viewBox="0 0 32 32" version="1.1" xmlns="http://www.w3.org/2000/svg" xmlns:xlink="http://www.w3.org/1999/xlink">
    <!-- Generator: Sketch 55.2 (78181) - https://sketchapp.com -->
    <title>arrow-right_32x32</title>
    <desc>Created with Sketch.</desc>
    <g id="arrow-right_32x32" stroke="none" stroke-width="1" fill="none" fill-rule="evenodd">
        <path d="M6.41414659,15.000067 L28.0000474,15.0010893 C28.5523321,15.0011154 29,15.4488519 29,16.0011366 C29,16.5534214 28.5522374,17.0011154 27.9999526,17.0010893 L6.4136609,17.000067 L16.7072351,27.2973787 C17.0976885,27.6879739 17.0975736,28.3211388 16.7069784,28.7115922 C16.3163832,29.1020456 15.6832183,29.1019307 15.2927649,28.7113355 L3.29276488,16.7069784 C2.90236159,16.3164334 2.90241905,15.6833674 3.29289322,15.2928932 L15.2928932,3.29289322 C15.6834175,2.90236893 16.3165825,2.90236893 16.7071068,3.29289322 C17.0976311,3.68341751 17.0976311,4.31658249 16.7071068,4.70710678 L6.41414659,15.000067 Z" id="Path" fill="#000000" fill-rule="nonzero" transform="translate(16.000000, 16.002179) scale(-1, 1) translate(-16.000000, -16.002179) "></path>
    </g>
</svg>