<?xml version="1.0" encoding="UTF-8"?>
<svg width="32px" height="32px" viewBox="0 0 32 32" version="1.1" xmlns="http://www.w3.org/2000/svg" xmlns:xlink="http://www.w3.org/1999/xlink">
    <!-- Generator: Sketch 55.2 (78181) - https://sketchapp.com -->
    <title>bank_32x32</title>
    <desc>Created with Sketch.</desc>
    <g id="bank_32x32" stroke="none" stroke-width="1" fill="none" fill-rule="evenodd">
        <path d="M11,24 L11,11 L13,11 L13,24 L15,24 L15,11 L17,11 L17,24 L19,24 L19,11 L21,11 L21,24 L26.2142857,24 C26.6482237,24 27,24.4477153 27,25 C27,25.5522847 26.6482237,26 26.2142857,26 L5.78571429,26 C5.35177627,26 5,25.5522847 5,25 C5,24.4477153 5.35177627,24 5.78571429,24 L6,24 L6,13 L4.67836859,13 C3.84994147,13 3.17836859,12.3284271 3.17836859,11.5 C3.17836859,10.9937222 3.43375623,10.5216048 3.85749555,10.2445449 L14.3582746,3.37866286 C15.3556375,2.72654211 16.6444089,2.72654314 17.6417708,3.37866548 L28.1425113,10.2445462 C28.8358793,10.697903 29.0304468,11.6275071 28.5770901,12.320875 C28.30003,12.7446132 27.8279132,13 27.3216363,13 L26,13 L26,19 C26,19.5522847 25.5522847,20 25,20 C24.4477153,20 24,19.5522847 24,19 L24,11 L25.6432726,11 L16.5472707,5.05260383 C16.2148168,4.83522972 15.7852263,4.83522938 15.452772,5.05260296 L6.35673719,11 L8,11 L8,24 L11,24 Z M3.8125,29 C3.36376864,29 3,28.5522847 3,28 C3,27.4477153 3.36376864,27 3.8125,27 L28.1875,27 C28.6362314,27 29,27.4477153 29,28 C29,28.5522847 28.6362314,29 28.1875,29 L3.8125,29 Z" id="Path" fill="#000000" fill-rule="nonzero"></path>
    </g>
</svg>