<?xml version="1.0" encoding="UTF-8"?>
<svg width="32px" height="32px" viewBox="0 0 32 32" version="1.1" xmlns="http://www.w3.org/2000/svg" xmlns:xlink="http://www.w3.org/1999/xlink">
    <!-- Generator: Sketch 55.2 (78181) - https://sketchapp.com -->
    <title>bike_32x32</title>
    <desc>Created with Sketch.</desc>
    <g id="bike_32x32" stroke="none" stroke-width="1" fill="none" fill-rule="evenodd">
        <path d="M21.8761192,13.3372869 C19.0224549,14.2424061 17,16.9074209 17,20.0002 L17,21.0002 L13.9171454,21.0002 C13.4410403,23.8377241 10.9727492,26.0004 8.0001,26.0004 C4.68681525,26.0004 2.0001,23.3136847 2.0001,20.0004 C2.0001,16.6864297 4.68650077,14.0004 8.0001,14.0004 C8.54466861,14.0004 9.07916465,14.0785669 9.59834466,14.2283605 L10.630477,11.0004 L9.0001,11.0004 C8.44781525,11.0004 8.0001,10.5526847 8.0001,10.0004 C8.0001,9.44811525 8.44781525,9.0004 9.0001,9.0004 L10.630477,9.0004 C10.8372056,9.0004 11.0426844,9.03245139 11.2395922,9.09541214 C12.0891889,9.36706858 12.6310499,10.1533616 12.6310149,11 L21.4864064,11 L21.2922464,9.83553326 C21.2118529,9.35337643 20.794677,9 20.3058638,9 L18,9 C17.4477153,9 17,8.55228475 17,8 C17,7.44771525 17.4477153,7 18,7 L20.3058638,7 C21.7723033,7 23.0238312,8.0601293 23.2650117,9.50659979 L24.0142317,14.0000165 C27.3209749,14.0076969 30,16.6914604 30,20 C30,23.3132847 27.3132847,26 24,26 C20.6867153,26 18,23.3132847 18,20 C18,19.2692362 18.1312898,18.5557837 18.3844269,17.886867 C18.4768476,17.6420121 18.586237,17.4023827 18.710825,17.1713507 C18.9729666,16.6852434 19.5795421,16.5036834 20.0656493,16.765825 C20.5517566,17.0279666 20.7333166,17.6345421 20.471175,18.1206493 C20.388736,18.2735216 20.3163997,18.4319821 20.255271,18.5939325 C20.0871655,19.0381533 20,19.5118262 20,20 C20,22.2087153 21.7912847,24 24,24 C26.2087153,24 28,22.2087153 28,20 C28,17.7912847 26.2087153,16 24,16 C23.8219567,16 23.6349061,16.0207834 23.3465923,16.0691943 L22.3592719,16.2349757 L21.8761192,13.3372869 Z M11.4212764,15.0941035 C12.7399754,16.009227 13.6455898,17.4109185 13.9158825,19.0002 L15.0552613,19.0002 C15.3226476,16.594434 16.5435774,14.4575833 18.3510234,13 L12.0908608,13 L11.4212764,15.0941035 Z M12.0001,20.0004 C12.0001,18.479513 11.1322721,17.1177499 9.77918418,16.4394758 C9.2034552,16.1512127 8.60735432,16.0004 8.0001,16.0004 C5.79100843,16.0004 4.0001,17.791061 4.0001,20.0004 C4.0001,22.2091153 5.79138475,24.0004 8.0001,24.0004 C10.2088153,24.0004 12.0001,22.2091153 12.0001,20.0004 Z" id="Path" fill="#000000" fill-rule="nonzero"></path>
    </g>
</svg>