<?xml version="1.0" encoding="UTF-8"?>
<svg width="32px" height="32px" viewBox="0 0 32 32" version="1.1" xmlns="http://www.w3.org/2000/svg" xmlns:xlink="http://www.w3.org/1999/xlink">
    <!-- Generator: Sketch 55.2 (78181) - https://sketchapp.com -->
    <title>branch_32x32</title>
    <desc>Created with Sketch.</desc>
    <g id="branch_32x32" stroke="none" stroke-width="1" fill="none" fill-rule="evenodd">
        <path d="M15,23 L15,20 L11,20 L11,28 L15,28 L15,25 L14,25 C13.4477153,25 13,24.5522847 13,24 C13,23.4477153 13.4477153,23 14,23 L15,23 Z M17,25 L17,28 L21,28 L21,20 L17,20 L17,23 L18,23 C18.5522847,23 19,23.4477153 19,24 C19,24.5522847 18.5522847,25 18,25 L17,25 Z M9,28 L9,18 L23,18 L23,28 L25,28 L25,23 C25,22.4477153 25.4477153,22 26,22 C26.5522847,22 27,22.4477153 27,23 L27,28 C27,29.1045695 26.1045695,30 25,30 L7,30 C5.8954305,30 5,29.1045695 5,28 L5,2 L27,2 L27,18 L25,18 L25,4 L7,4 L7,28 L9,28 Z M18.4725802,15.2981023 L16.0173632,10.8363855 C15.6973705,12.770887 14.0174087,14.2479444 12,14.2479444 L12,12.617436 C13.3519693,12.6137997 14.4457626,11.5170973 14.4464899,10.1644008 L14.4464899,7.88808891 L14.4755801,7.88808891 C14.4486716,7.5644599 14.6152133,7.25537601 14.9002977,7.09901593 C15.2944706,6.88520261 15.786823,7.0313811 16.0035454,7.4299175 L18.3998545,11.7912729 L18.3998545,7.81827231 C18.3998545,7.36591896 18.7576646,7.00010909 19.1998364,7.00010909 C19.6420081,7.00010909 19.9998182,7.36591896 19.9998182,7.81827231 L19.9998182,14.9090202 C19.9998182,14.9628372 19.9947274,15.0173814 19.9845458,15.0697439 C19.914002,15.4508261 19.5823731,15.7271835 19.1889275,15.7279107 C18.8994796,15.7279107 18.6173042,15.5737324 18.4725802,15.2981023 Z" id="Path" fill="#000000" fill-rule="nonzero"></path>
    </g>
</svg>