<?xml version="1.0" encoding="UTF-8"?>
<svg width="32px" height="32px" viewBox="0 0 32 32" version="1.1" xmlns="http://www.w3.org/2000/svg" xmlns:xlink="http://www.w3.org/1999/xlink">
    <!-- Generator: Sketch 55.2 (78181) - https://sketchapp.com -->
    <title>bus_32x32</title>
    <desc>Created with Sketch.</desc>
    <g id="bus_32x32" stroke="none" stroke-width="1" fill="none" fill-rule="evenodd">
        <path d="M18.2544081,20 L26,20 C26.5522847,20 27,20.4477153 27,21 L27,25.0934256 C27,25.1944566 26.9925995,25.2931743 26.9782847,25.3893473 C27.1319171,28.4631158 26.4703562,30 24.993602,30 C23.785003,30 23.1259288,29.1176471 23.0163793,27.3529412 L8.98362071,27.3529412 C8.87407119,29.1176471 8.21499696,30 7.00639802,30 C5.52964378,30 4.86808289,28.4631158 5.02171533,25.3893473 C5.00740053,25.2931743 5,25.1944566 5,25.0934256 L5,21 L5,6 C5,4.8954305 5.8954305,4 7,4 L11.1707057,4 C11.5825421,2.83480763 12.6937812,2 14,2 L18,2 C19.3062188,2 20.4174579,2.83480763 20.8292943,4 L25,4 C26.1045695,4 27,4.8954305 27,6 L27,15 C27,15.5522847 26.5522847,16 26,16 C25.4477153,16 25,15.5522847 25,15 L25,6 L20.8292943,6 C20.4174579,7.16519237 19.3062188,8 18,8 L14,8 C12.6937812,8 11.5825421,7.16519237 11.1707057,6 L7,6 L7,20 L15.9999411,20 C16.5174644,19.9967379 17.0349718,19.998426 17.4491446,20 L15.9999411,20 Z M7,22 L7,25.0934256 C7,25.1543551 7.27420634,25.3529412 7.73913043,25.3529412 L24.2608696,25.3529412 C24.7257937,25.3529412 25,25.1543551 25,25.0934256 L25,22 L7,22 Z M14,4 C13.4477153,4 13,4.44771525 13,5 C13,5.55228475 13.4477153,6 14,6 L18,6 C18.5522847,6 19,5.55228475 19,5 C19,4.44771525 18.5522847,4 18,4 L14,4 Z" id="Path" fill="#000000" fill-rule="nonzero"></path>
    </g>
</svg>