<?xml version="1.0" encoding="UTF-8"?>
<svg width="32px" height="32px" viewBox="0 0 32 32" version="1.1" xmlns="http://www.w3.org/2000/svg" xmlns:xlink="http://www.w3.org/1999/xlink">
    <!-- Generator: Sketch 55.2 (78181) - https://sketchapp.com -->
    <title>car_32x32</title>
    <desc>Created with Sketch.</desc>
    <g id="car_32x32" stroke="none" stroke-width="1" fill="none" fill-rule="evenodd">
        <path d="M12,8.00134449 L12,8 L14,8 L14,8.00134449 L16.9999986,8.00134449 C19.1122805,8.00134449 20.525868,9.16538593 22.6616923,11.8834952 C22.7340309,11.9755553 23.2046517,12.5783109 23.3387526,12.748091 C23.5886431,13.0644679 23.7901989,13.3119819 23.981479,13.5351422 C24.8296989,14.5247327 25.4455758,14.9725886 25.9514848,15 L27,15 C28.6568542,15 30,16.3431458 30,18 L30,20 C30,21.6568542 28.6568542,23 27,23 L26.8739825,23 C26.4299397,24.7252272 24.8638394,26 23,26 C20.790861,26 19,24.209139 19,22 C19,19.790861 20.790861,18 23,18 C24.8638394,18 26.4299397,19.2747728 26.8739825,21 L27,21 C27.5522847,21 28,20.5522847 28,20 L28,18 C28,17.4477153 27.5522847,17 27,17 L25.9995511,17 L25.9995505,17.0013445 C25.9685212,17.0013306 25.9376331,17.0008823 25.9068799,17 L5.11134055,17 C5.07462009,17.0008993 5.03751152,17.0013445 4.99999863,17.0013445 L4.99999863,17.0000014 C4.44771451,17.0000007 4,17.4477157 4,18 L4,20 C4,20.5522847 4.44771525,21 5,21 L5.12601749,21 C5.57006028,19.2747728 7.13616057,18 9,18 C10.8638394,18 12.4299397,19.2747728 12.8739825,21 L16,21 C16.5522847,21 17,21.4477153 17,22 C17,22.5522847 16.5522847,23 16,23 L12.8739825,23 C12.4299397,24.7252272 10.8638394,26 9,26 C7.13616057,26 5.57006028,24.7252272 5.12601749,23 L5,23 C3.34314575,23 2,21.6568542 2,20 L2,18 C2,16.3431458 3.34314575,15 5,15 L5.05217059,15 C5.74087093,14.9642665 6.37181235,14.2101096 7.6317568,12.0052062 C9.34007087,9.01565567 10.2094804,8.00134449 11.9999986,8.00134449 Z M14,10.0013445 L14,15 L22.6047807,15 C22.5577791,14.9466256 22.5105156,14.8921998 22.4629654,14.8367245 C22.2515868,14.5901159 22.0343437,14.3233378 21.7692748,13.987744 C21.6309412,13.8126051 21.1581634,13.2070868 21.0891026,13.1191981 C19.3287472,10.878921 18.2630367,10.0013445 16.9999986,10.0013445 L14.0247934,10.0013445 L14,10.0013445 Z M11.9999986,10.0013445 C11.2905195,10.0013445 10.6599282,10.7370343 9.3682432,12.9974838 C8.90869658,13.8016907 8.5098567,14.4629607 8.13746237,15 L12,15 L12,10.0013445 Z M9,24 C10.1045695,24 11,23.1045695 11,22 C11,20.8954305 10.1045695,20 9,20 C7.8954305,20 7,20.8954305 7,22 C7,23.1045695 7.8954305,24 9,24 Z M23,24 C24.1045695,24 25,23.1045695 25,22 C25,20.8954305 24.1045695,20 23,20 C21.8954305,20 21,20.8954305 21,22 C21,23.1045695 21.8954305,24 23,24 Z" id="Path" fill="#000000" fill-rule="nonzero"></path>
    </g>
</svg>