<?xml version="1.0" encoding="UTF-8"?>
<svg width="32px" height="32px" viewBox="0 0 32 32" version="1.1" xmlns="http://www.w3.org/2000/svg" xmlns:xlink="http://www.w3.org/1999/xlink">
    <!-- Generator: Sketch 55.2 (78181) - https://sketchapp.com -->
    <title>card_32x32</title>
    <desc>Created with Sketch.</desc>
    <g id="card_32x32" stroke="none" stroke-width="1" fill="none" fill-rule="evenodd">
        <path d="M29,22 C29,24.209139 27.209139,26 25,26 L7,26 C4.790861,26 3,24.209139 3,22 L3,10 C3,7.790861 4.790861,6 7,6 L25,6 C27.209139,6 29,7.790861 29,10 L29,16 C29,16.5522847 28.5522847,17 28,17 C27.4477153,17 27,16.5522847 27,16 L27,13 L5,13 L5,22 C5,23.1045695 5.8954305,24 7,24 L25,24 C26.1045695,24 27,23.1045695 27,22 L27,21 L29,21 L29,22 Z M5,11 L27,11 L27,10 C27,8.8954305 26.1045695,8 25,8 L7,8 C5.8954305,8 5,8.8954305 5,10 L5,11 Z M8,15 L14,15 C14.5522847,15 15,15.4477153 15,16 C15,16.5522847 14.5522847,17 14,17 L8,17 C7.44771525,17 7,16.5522847 7,16 C7,15.4477153 7.44771525,15 8,15 Z" id="Path" fill="#000000"></path>
    </g>
</svg>