<?xml version="1.0" encoding="UTF-8"?>
<svg width="32px" height="32px" viewBox="0 0 32 32" version="1.1" xmlns="http://www.w3.org/2000/svg" xmlns:xlink="http://www.w3.org/1999/xlink">
    <!-- Generator: Sketch 55.2 (78181) - https://sketchapp.com -->
    <title>cards_32x32</title>
    <desc>Created with Sketch.</desc>
    <g id="cards_32x32" stroke="none" stroke-width="1" fill="none" fill-rule="evenodd">
        <path d="M4,17 L4,24 C4,24.5522847 4.44771525,25 5,25 L21,25 C21.5522847,25 22,24.5522847 22,24 L22,14 C22,13.4477153 21.5522847,13 21,13 L5,13 C4.44771525,13 4,13.4477153 4,14 L4,15 L22,15 L22,17 L4,17 Z M5,11 L21,11 C22.6568542,11 24,12.3431458 24,14 L24,24 C24,25.6568542 22.6568542,27 21,27 L5,27 C3.34314575,27 2,25.6568542 2,24 L2,14 C2,12.3431458 3.34314575,11 5,11 Z M10,9 L8,9 C8,6.790861 9.790861,5 12,5 L26,5 C28.209139,5 30,6.790861 30,9 L30,17 C30,19.209139 28.209139,21 26,21 L26,19 C27.1045695,19 28,18.1045695 28,17 L28,9 C28,7.8954305 27.1045695,7 26,7 L12,7 C10.8954305,7 10,7.8954305 10,9 Z M7,21 C6.44771525,21 6,20.5522847 6,20 C6,19.4477153 6.44771525,19 7,19 L10,19 C10.5522847,19 11,19.4477153 11,20 C11,20.5522847 10.5522847,21 10,21 L7,21 Z" id="Path" fill="#000000" fill-rule="nonzero"></path>
    </g>
</svg>