<?xml version="1.0" encoding="UTF-8"?>
<svg width="32px" height="32px" viewBox="0 0 32 32" version="1.1" xmlns="http://www.w3.org/2000/svg" xmlns:xlink="http://www.w3.org/1999/xlink">
    <!-- Generator: Sketch 55.2 (78181) - https://sketchapp.com -->
    <title>cash-out-atm_32x32</title>
    <desc>Created with Sketch.</desc>
    <g id="cash-out-atm_32x32" stroke="none" stroke-width="1" fill="none" fill-rule="evenodd">
        <path d="M25,19 C25,19.5522847 24.5522847,20 24,20 C23.4477153,20 23,19.5522847 23,19 L23,12 L23,10 L23,9 L9,9 L9,10 L9,12 L9,26 C9,26.5522847 9.44771525,27 10,27 L22,27 C22.5522847,27 23,26.5522847 23,26 L23,24 L25,24 L25,26 C25,27.6568542 23.6568542,29 22,29 L10,29 C8.34314575,29 7,27.6568542 7,26 L7,12 L5,12 C3.8954305,12 3,11.1045695 3,10 L3,5 C3,3.8954305 3.8954305,3 5,3 L27,3 C28.1045695,3 29,3.8954305 29,5 L29,10 C29,11.1045695 28.1045695,12 27,12 L25,12 L25,19 Z M25,10 L27,10 L27,5 L5,5 L5,10 L7,10 L7,9 L6,9 L6,7 L26,7 L26,9 L25,9 L25,10 Z M16,24 C12.6862915,24 10,21.3137085 10,18 C10,14.6862915 12.6862915,12 16,12 C19.3137085,12 22,14.6862915 22,18 C22,21.3137085 19.3137085,24 16,24 Z M16,22 C18.209139,22 20,20.209139 20,18 C20,15.790861 18.209139,14 16,14 C13.790861,14 12,15.790861 12,18 C12,20.209139 13.790861,22 16,22 Z M16.9981565,20.0490011 L16.9352213,20.0112273 L16.7331631,18.8256288 C16.9925134,18.7422053 17.1577302,18.6683996 17.2343999,18.6029969 C17.405344,18.4560608 17.4897195,18.2541655 17.4897195,17.9862154 C17.4897195,17.7396645 17.4227496,17.5449522 17.2875392,17.3950495 C17.1741864,17.2725997 17.0488426,17.2125618 16.9067228,17.2125618 C16.823411,17.2125618 16.7559943,17.2383789 16.7023254,17.2915242 C16.6101416,17.3801842 16.5084766,17.6005691 16.3989847,17.9543644 L16.2441008,18.4612338 C15.9721826,19.3507317 15.5384458,19.8017909 14.9403929,19.8017909 C14.6165476,19.8017909 14.3311569,19.677648 14.0899064,19.4320225 C13.8492019,19.1869527 13.6841839,18.8607176 13.6440966,18.4923928 L12.9509989,18.4423928 L13.0009989,17.260397 L13.5920735,17.2988825 C13.657358,17.0230135 13.753912,16.7894137 13.8820255,16.5982909 C14.0082784,16.4099439 14.2019404,16.2164466 14.5372711,16.0334852 L14.9985812,17.0410843 C14.8401148,17.1679742 14.7263468,17.2747579 14.6558256,17.3632183 C14.5426234,17.5012843 14.4853424,17.6799323 14.4853424,17.8975142 C14.4853424,18.1180115 14.5418918,18.2874807 14.6539612,18.4085445 C14.7459963,18.5086071 14.8441695,18.5571235 14.9504939,18.5571235 C15.1062124,18.5571235 15.252047,18.3613891 15.3706329,17.963344 L15.5321996,17.4270784 C15.712845,16.8199149 15.9428745,16.4048939 16.223012,16.185253 C16.4248356,16.0297884 16.6512914,15.9509989 16.8999888,15.9509989 C17.2345537,15.9509989 17.5359158,16.0755477 17.7993327,16.3233891 C18.0640544,16.569222 18.2482769,16.893201 18.3073962,17.260397 L19.0509989,17.310397 L19.0009989,18.4923928 L18.4106385,18.4503033 C18.2733613,19.3070611 17.83096,19.8062395 16.9981565,20.0490011 Z" id="Path" fill="#000000" fill-rule="nonzero"></path>
    </g>
</svg>