<?xml version="1.0" encoding="UTF-8"?>
<svg width="32px" height="32px" viewBox="0 0 32 32" version="1.1" xmlns="http://www.w3.org/2000/svg" xmlns:xlink="http://www.w3.org/1999/xlink">
    <!-- Generator: Sketch 55.2 (78181) - https://sketchapp.com -->
    <title>cash-in_32x32</title>
    <desc>Created with Sketch.</desc>
    <g id="cash-in_32x32" stroke="none" stroke-width="1" fill="none" fill-rule="evenodd">
        <path d="M27,24 L29,24 L29,27 C29,28.1045695 28.1045695,29 27,29 L5,29 C3.8954305,29 3,28.1045695 3,27 L3,13 C3,11.8954305 3.8954305,11 5,11 L10.9933062,11 L10.9933062,13 L5,13 L5,27 L27,27 L27,24 Z M21.5,13 C20.9477153,13 20.5,12.5522847 20.5,12 C20.5,11.4477153 20.9477153,11 21.5,11 L27,11 C28.1045695,11 29,11.8954305 29,13 L29,19 C29,19.5522847 28.5522847,20 28,20 C27.4477153,20 27,19.5522847 27,19 L27,13 L21.5,13 Z M9,20 L9,18 L23,18 L23,20 L9,20 Z M11.1010173,20 C9.80446721,18.729483 9,16.9586882 9,15 C9,11.1340068 12.1340068,8 16,8 C19.8659932,8 23,11.1340068 23,15 C23,16.9586882 22.1955328,18.729483 20.8989827,20 L11.1010173,20 Z M16,20 C18.7614237,20 21,17.7614237 21,15 C21,12.2385763 18.7614237,10 16,10 C13.2385763,10 11,12.2385763 11,15 C11,17.7614237 13.2385763,20 16,20 Z M24,9 C24,9.55228475 23.5522847,10 23,10 C22.4477153,10 22,9.55228475 22,9 L22,5 C22,4.44771525 22.4477153,4 23,4 C23.5522847,4 24,4.44771525 24,5 L24,9 Z M17,6 C17,6.55228475 16.5522847,7 16,7 C15.4477153,7 15,6.55228475 15,6 L15,4 C15,3.44771525 15.4477153,3 16,3 C16.5522847,3 17,3.44771525 17,4 L17,6 Z M10,9 C10,9.55228475 9.55228475,10 9,10 C8.44771525,10 8,9.55228475 8,9 L8,5 C8,4.44771525 8.44771525,4 9,4 C9.55228475,4 10,4.44771525 10,5 L10,9 Z" id="Path" fill="#000000" fill-rule="nonzero"></path>
    </g>
</svg>