<?xml version="1.0" encoding="UTF-8"?>
<svg width="32px" height="32px" viewBox="0 0 32 32" version="1.1" xmlns="http://www.w3.org/2000/svg" xmlns:xlink="http://www.w3.org/1999/xlink">
    <!-- Generator: Sketch 55.2 (78181) - https://sketchapp.com -->
    <title>cash_32x32</title>
    <desc>Created with Sketch.</desc>
    <g id="cash_32x32" stroke="none" stroke-width="1" fill="none" fill-rule="evenodd">
        <path d="M18,22 C18.5522847,22 19,22.4477153 19,23 C19,23.5522847 18.5522847,24 18,24 L2,24 L2,8 L9,8 L30,8 L30,24 L22,24 L22,22 L24.1000181,22 C24.4977006,20.0408696 26.0408696,18.4977006 28,18.1000181 L28,13.8999819 C26.0408696,13.5022994 24.4977006,11.9591304 24.1000181,10 L7.89998188,10 C7.50229941,11.9591304 5.95913038,13.5022994 4,13.8999819 L4,18.1000181 C5.95913038,18.4977006 7.50229941,20.0408696 7.89998188,22 L18,22 Z M4,11.8292943 C4.85241345,11.5280094 5.52800937,10.8524134 5.82929429,10 L4,10 L4,11.8292943 Z M26.1707057,10 C26.4719906,10.8524134 27.1475866,11.5280094 28,11.8292943 L28,10 L26.1707057,10 Z M5.82929429,22 C5.52800937,21.1475866 4.85241345,20.4719906 4,20.1707057 L4,22 L5.43093314,22 L5.82929429,22 Z M28,20.1707057 C27.1475866,20.4719906 26.4719906,21.1475866 26.1707057,22 L28,22 L28,20.1707057 Z M16,21 C13.7181458,21 12,18.709139 12,16 C12,13.290861 13.7181458,11 16,11 C18.2818542,11 20,13.290861 20,16 C20,18.709139 18.2818542,21 16,21 Z M16,19 C17.0318542,19 18,17.709139 18,16 C18,14.290861 17.0318542,13 16,13 C14.9681458,13 14,14.290861 14,16 C14,17.709139 14.9681458,19 16,19 Z" id="Path" fill="#000000" fill-rule="nonzero"></path>
    </g>
</svg>