<?xml version="1.0" encoding="UTF-8"?>
<svg width="32px" height="32px" viewBox="0 0 32 32" version="1.1" xmlns="http://www.w3.org/2000/svg" xmlns:xlink="http://www.w3.org/1999/xlink">
    <!-- Generator: Sketch 55.2 (78181) - https://sketchapp.com -->
    <title>check-circle_32x32</title>
    <desc>Created with Sketch.</desc>
    <g id="check-circle_32x32" stroke="none" stroke-width="1" fill="none" fill-rule="evenodd">
        <path d="M27.2366908,24.3523074 L25.8047217,22.9203383 C27.1875203,20.9647642 28,18.5772645 28,16 C28,9.372583 22.627417,4 16,4 C9.372583,4 4,9.372583 4,16 C4,22.627417 9.372583,28 16,28 C18.6060507,28 21.0180738,27.1692693 22.9857033,25.7581741 L24.4162958,27.1887666 C22.0736607,28.9537107 19.1590173,30 16,30 C8.2680135,30 2,23.7319865 2,16 C2,8.2680135 8.2680135,2 16,2 C23.7319865,2 30,8.2680135 30,16 C30,19.1303183 28.972635,22.0206827 27.2366908,24.3523074 Z M21.2723246,11.3140783 C21.6511487,10.9121943 22.2840377,10.8935005 22.6859217,11.2723246 C23.0878057,11.6511487 23.1064995,12.2840377 22.7276754,12.6859217 L15.1867119,20.6859217 C14.8021878,21.0938526 14.1574961,21.1060469 13.7578206,20.712949 L9.29878412,16.3272956 C8.90503325,15.9400248 8.89978016,15.3068816 9.287051,14.9131307 C9.67432183,14.5193798 10.307465,14.5141267 10.7012159,14.9013976 L14.4320031,18.5707866 L21.2723246,11.3140783 Z M23.7,27.5 C23.1477153,27.5 22.7,27.0522847 22.7,26.5 C22.7,25.9477153 23.1477153,25.5 23.7,25.5 C24.2522847,25.5 24.7,25.9477153 24.7,26.5 C24.7,27.0522847 24.2522847,27.5 23.7,27.5 Z" id="Path" fill="#000000" fill-rule="nonzero"></path>
    </g>
</svg>