<?xml version="1.0" encoding="UTF-8"?>
<svg width="32px" height="32px" viewBox="0 0 32 32" version="1.1" xmlns="http://www.w3.org/2000/svg" xmlns:xlink="http://www.w3.org/1999/xlink">
    <!-- Generator: Sketch 55.2 (78181) - https://sketchapp.com -->
    <title>clock_32x32</title>
    <desc>Created with Sketch.</desc>
    <g id="clock_32x32" stroke="none" stroke-width="1" fill="none" fill-rule="evenodd">
        <path d="M16,2 C23.7319865,2 30,8.2680135 30,16 C30,23.7319865 23.7319865,30 16,30 C8.2680135,30 2,23.7319865 2,16 C2,8.2680135 8.2680135,2 16,2 Z M16,4 C9.372583,4 4,9.372583 4,16 C4,22.627417 9.372583,28 16,28 C22.627417,28 28,22.627417 28,16 C28,9.372583 22.627417,4 16,4 Z M17,15.5857864 L22.7071068,21.2928932 C23.0976311,21.6834175 23.0976311,22.3165825 22.7071068,22.7071068 C22.3165825,23.0976311 21.6834175,23.0976311 21.2928932,22.7071068 L15.2928932,16.7071068 C15.1053568,16.5195704 15,16.2652165 15,16 L15,8 C15,7.44771525 15.4477153,7 16,7 C16.5522847,7 17,7.44771525 17,8 L17,15.5857864 Z" id="Path" fill="#000000" fill-rule="nonzero"></path>
    </g>
</svg>