<?xml version="1.0" encoding="UTF-8"?>
<svg width="32px" height="32px" viewBox="0 0 32 32" version="1.1" xmlns="http://www.w3.org/2000/svg" xmlns:xlink="http://www.w3.org/1999/xlink">
    <!-- Generator: Sketch 55.2 (78181) - https://sketchapp.com -->
    <title>cog_32x32</title>
    <desc>Created with Sketch.</desc>
    <g id="cog_32x32" stroke="none" stroke-width="1" fill="none" fill-rule="evenodd">
        <path d="M15.997,2 C14.9,2 13.838,2.139 12.813,2.377 L12.381,5.621 C11.06,6.082 9.854,6.783 8.816,7.679 L5.795,6.433 C4.342,7.982 3.231,9.854 2.6,11.94 L5.197,13.939 C5.07,14.607 4.997,15.295 4.997,16 C4.997,16.705 5.07,17.393 5.197,18.061 L2.6,20.061 C3.231,22.146 4.342,24.018 5.795,25.566 L8.816,24.321 C9.854,25.218 11.06,25.919 12.381,26.379 L12.813,29.622 C13.838,29.861 14.9,30 15.997,30 C17.094,30 18.156,29.861 19.181,29.622 L19.613,26.379 C20.934,25.919 22.141,25.218 23.178,24.321 L26.199,25.566 C27.652,24.018 28.763,22.146 29.394,20.061 L26.797,18.061 C26.924,17.393 26.997,16.705 26.997,16 C26.997,15.295 26.924,14.607 26.797,13.939 L29.394,11.94 C28.763,9.854 27.652,7.982 26.199,6.433 L23.178,7.679 C22.141,6.783 20.934,6.082 19.613,5.621 L19.181,2.377 C18.156,2.139 17.094,2 15.997,2 M15.997,4 C16.454,4 16.919,4.029 17.391,4.087 L17.631,5.885 L17.793,7.104 L18.955,7.509 C20.031,7.884 21.012,8.451 21.87,9.192 L22.802,9.997 L23.94,9.528 L25.61,8.839 C26.171,9.589 26.643,10.4 27.013,11.25 L25.577,12.354 L24.603,13.104 L24.832,14.312 C24.941,14.888 24.997,15.456 24.997,16 C24.997,16.544 24.941,17.112 24.832,17.688 L24.603,18.896 L25.577,19.646 L27.013,20.751 C26.643,21.6 26.171,22.411 25.61,23.161 L23.94,22.473 L22.802,22.003 L21.87,22.808 C21.012,23.55 20.031,24.115 18.955,24.49 L17.793,24.896 L17.631,26.115 L17.391,27.913 C16.919,27.971 16.454,28 15.997,28 C15.54,28 15.075,27.971 14.603,27.913 L14.363,26.115 L14.201,24.896 L13.039,24.49 C11.963,24.115 10.982,23.55 10.123,22.808 L9.192,22.003 L8.054,22.473 L6.384,23.161 C5.823,22.411 5.351,21.6 4.981,20.751 L6.417,19.646 L7.391,18.896 L7.162,17.688 C7.052,17.112 6.997,16.544 6.997,16 C6.997,15.456 7.052,14.888 7.162,14.312 L7.391,13.104 L6.417,12.354 L4.981,11.25 C5.351,10.4 5.823,9.589 6.384,8.839 L8.054,9.528 L9.192,9.997 L10.123,9.192 C10.982,8.451 11.963,7.884 13.039,7.509 L14.201,7.104 L14.363,5.885 L14.603,4.087 C15.075,4.029 15.54,4 15.997,4 Z M15.997,21 C18.7584237,21 20.997,18.7614237 20.997,16 C20.997,13.2385763 18.7584237,11 15.997,11 C13.2355763,11 10.997,13.2385763 10.997,16 C10.997,18.7614237 13.2355763,21 15.997,21 Z M15.997,19 C14.3401458,19 12.997,17.6568542 12.997,16 C12.997,14.3431458 14.3401458,13 15.997,13 C17.6538542,13 18.997,14.3431458 18.997,16 C18.997,17.6568542 17.6538542,19 15.997,19 Z" id="Path" fill="#000000"></path>
    </g>
</svg>