<?xml version="1.0" encoding="UTF-8"?>
<svg width="32px" height="32px" viewBox="0 0 32 32" version="1.1" xmlns="http://www.w3.org/2000/svg" xmlns:xlink="http://www.w3.org/1999/xlink">
    <!-- Generator: Sketch 55.2 (78181) - https://sketchapp.com -->
    <title>cross_32x32</title>
    <desc>Created with Sketch.</desc>
    <g id="cross_32x32" stroke="none" stroke-width="1" fill="none" fill-rule="evenodd">
        <path d="M16,14.5857864 L27.2928932,3.29289322 C27.6834175,2.90236893 28.3165825,2.90236893 28.7071068,3.29289322 C29.0976311,3.68341751 29.0976311,4.31658249 28.7071068,4.70710678 L17.4142136,16 L28.7071068,27.2928932 C29.0976311,27.6834175 29.0976311,28.3165825 28.7071068,28.7071068 C28.3165825,29.0976311 27.6834175,29.0976311 27.2928932,28.7071068 L16,17.4142136 L4.70710678,28.7071068 C4.31658249,29.0976311 3.68341751,29.0976311 3.29289322,28.7071068 C2.90236893,28.3165825 2.90236893,27.6834175 3.29289322,27.2928932 L14.5857864,16 L3.29289322,4.70710678 C2.90236893,4.31658249 2.90236893,3.68341751 3.29289322,3.29289322 C3.68341751,2.90236893 4.31658249,2.90236893 4.70710678,3.29289322 L16,14.5857864 Z" id="Path" fill="#000000" fill-rule="nonzero"></path>
    </g>
</svg>