<?xml version="1.0" encoding="UTF-8"?>
<svg width="32px" height="32px" viewBox="0 0 32 32" version="1.1" xmlns="http://www.w3.org/2000/svg" xmlns:xlink="http://www.w3.org/1999/xlink">
    <!-- Generator: Sketch 55.2 (78181) - https://sketchapp.com -->
    <title>dashboard_32x32</title>
    <desc>Created with Sketch.</desc>
    <g id="dashboard_32x32" stroke="none" stroke-width="1" fill="none" fill-rule="evenodd">
        <path d="M5,3 L13,3 C14.1045695,3 15,3.8954305 15,5 L15,17 C15,18.1045695 14.1045695,19 13,19 L5,19 C3.8954305,19 3,18.1045695 3,17 L3,5 C3,3.8954305 3.8954305,3 5,3 Z M19,13 L27,13 C28.1045695,13 29,13.8954305 29,15 L29,27 C29,28.1045695 28.1045695,29 27,29 L19,29 C17.8954305,29 17,28.1045695 17,27 L17,15 C17,13.8954305 17.8954305,13 19,13 Z M19,3 L27,3 C28.1045695,3 29,3.8954305 29,5 L29,9 C29,10.1045695 28.1045695,11 27,11 L19,11 C17.8954305,11 17,10.1045695 17,9 L17,5 C17,3.8954305 17.8954305,3 19,3 Z M5,21 L13,21 C14.1045695,21 15,21.8954305 15,23 L15,27 C15,28.1045695 14.1045695,29 13,29 L5,29 C3.8954305,29 3,28.1045695 3,27 L3,23 C3,21.8954305 3.8954305,21 5,21 Z M19,15 L19,27 L27,27 L27,15 L19,15 Z M5,5 L5,17 L13,17 L13,5 L5,5 Z M19,5 L19,9 L27,9 L27,5 L19,5 Z M5,23 L5,27 L13,27 L13,23 L5,23 Z" id="Path" fill="#000000" fill-rule="nonzero"></path>
    </g>
</svg>