<?xml version="1.0" encoding="UTF-8"?>
<svg width="32px" height="32px" viewBox="0 0 32 32" version="1.1" xmlns="http://www.w3.org/2000/svg" xmlns:xlink="http://www.w3.org/1999/xlink">
    <!-- Generator: Sketch 55.2 (78181) - https://sketchapp.com -->
    <title>dog_32x32</title>
    <desc>Created with Sketch.</desc>
    <g id="dog_32x32" stroke="none" stroke-width="1" fill="none" fill-rule="evenodd">
        <path d="M19.2489722,28.3337095 C18.5227892,29.3428755 17.3380583,30 16,30 C14.6619334,30 13.477196,29.3428673 12.7510142,28.3336906 C11.9141183,28.7659094 10.9751995,29 10,29 C6.68621525,29 4,26.3137847 4,23 L4,9.5 L4,7 C4,4.79086215 5.79106833,3 8,3 C10.2089317,3 12,4.79086215 12,7 L20,7 C20,4.79086215 21.7910683,3 24,3 C26.2089317,3 28,4.79086215 28,7 L28,18 L26,18 L26,7 C26,5.89548319 25.1044137,5 24,5 C22.8955863,5 22,5.89548319 22,7 L22,9 L12,9 L12,10 C12,12.2091379 10.2089317,14 8,14 C7.27145606,14 6.58836707,13.805191 6,13.4648177 L6,23 C6,25.2092153 7.79078475,27 10,27 C11.0765847,27 12.0827508,26.5744478 12.8284398,25.8283467 L14.5856937,24.0713244 L13.9597973,23.4455103 L12.7756475,22.259361 C11.6892842,21.1737786 11.6892842,19.4127214 12.775139,18.3276475 C13.6476478,17.454511 14.9561065,17.2831628 16,17.8134709 C17.0438676,17.2831424 18.3522503,17.4544091 19.2243525,18.327139 C20.3107158,19.4127214 20.3107158,21.1737786 19.2252027,22.2585103 L18.0395602,23.4461533 L17.4143067,24.0713245 L19.1718021,25.8285886 C19.9172492,26.5744478 20.9234153,27 22,27 C24.2092153,27 26,25.2092153 26,23 C26,22.4477153 26.4477153,22 27,22 C27.5522847,22 28,22.4477153 28,23 C28,26.3137847 25.3137847,29 22,29 C21.0247745,29 20.0858315,28.7658969 19.2489722,28.3337095 Z M17.6480795,27.1333075 L16,25.4854448 L14.3519204,27.1333074 C14.7126276,27.656816 15.3162984,28 16,28 C16.6837016,28 17.2873724,27.656816 17.6480795,27.1333075 Z M12,16.5 C12,17.3285 11.3285,18 10.5,18 C9.6715,18 9,17.3285 9,16.5 C9,15.6715 9.6715,15 10.5,15 C11.3285,15 12,15.6715 12,16.5 Z M23,16.5 C23,17.3285 22.3285,18 21.5,18 C20.6715,18 20,17.3285 20,16.5 C20,15.6715 20.6715,15 21.5,15 C22.3285,15 23,15.6715 23,16.5 Z M8,12 C9.10441371,12 10,11.1045168 10,10 L10,7 C10,5.89548319 9.10441371,5 8,5 C6.89558629,5 6,5.89548319 6,7 L6,10 C6,11.1045168 6.89558629,12 8,12 Z M15.3745602,22.0318467 L16.0000002,22.6572043 L16.6247973,22.0324897 L17.8106475,20.844639 C18.1152842,20.5402214 18.1152842,20.0462786 17.810139,19.7413525 C17.505679,19.4366735 17.0120401,19.4366735 16.7071068,19.7416068 L16,20.4487136 L15.2928932,19.7416068 C14.9879599,19.4366735 14.494321,19.4366735 14.1893525,19.741861 C13.8847158,20.0462786 13.8847158,20.5402214 14.1902027,20.8454897 L15.3745602,22.0318467 Z" id="Path" fill="#000000" fill-rule="nonzero"></path>
    </g>
</svg>