<?xml version="1.0" encoding="UTF-8"?>
<svg width="32px" height="32px" viewBox="0 0 32 32" version="1.1" xmlns="http://www.w3.org/2000/svg" xmlns:xlink="http://www.w3.org/1999/xlink">
    <!-- Generator: Sketch 55.2 (78181) - https://sketchapp.com -->
    <title>face-smile_32x32</title>
    <desc>Created with Sketch.</desc>
    <g id="face-smile_32x32" stroke="none" stroke-width="1" fill="none" fill-rule="evenodd">
        <path d="M24.1128884,27.4110509 C21.8241312,29.0412155 19.0240337,30 16,30 C8.2680135,30 2,23.7319865 2,16 C2,8.2680135 8.2680135,2 16,2 C23.7319865,2 30,8.2680135 30,16 C30,19.1303183 28.972635,22.0206827 27.2366908,24.3523074 L25.8047217,22.9203383 C27.1875203,20.9647642 28,18.5772645 28,16 C28,9.372583 22.627417,4 16,4 C9.372583,4 4,9.372583 4,16 C4,22.627417 9.372583,28 16,28 C18.6060507,28 21.0180738,27.1692693 22.9857033,25.7581741 L23.006791,25.7792618 C23.1865522,25.6063248 23.4308593,25.5 23.7,25.5 C24.2522847,25.5 24.7,25.9477153 24.7,26.5 C24.7,26.9050572 24.4591711,27.2538659 24.1128884,27.4110509 Z M10.2192826,17.6129484 C10.9238034,20.1432863 13.2450723,22 16,22 C18.7549277,22 21.0761966,20.1432863 21.7807174,17.6129484 L23.5305521,18.7065951 C22.4211275,21.7928999 19.4683117,24 16,24 C12.5316883,24 9.57887254,21.7928999 8.46944791,18.7065951 L10.2192826,17.6129484 Z M13,11 C13.5522847,11 14,11.4477153 14,12 L14,14 C14,14.5522847 13.5522847,15 13,15 C12.4477153,15 12,14.5522847 12,14 L12,12 C12,11.4477153 12.4477153,11 13,11 Z M19,11 C19.5522847,11 20,11.4477153 20,12 L20,14 C20,14.5522847 19.5522847,15 19,15 C18.4477153,15 18,14.5522847 18,14 L18,12 C18,11.4477153 18.4477153,11 19,11 Z" id="Path" fill="#000000" fill-rule="nonzero"></path>
    </g>
</svg>