<?xml version="1.0" encoding="UTF-8"?>
<svg width="32px" height="32px" viewBox="0 0 32 32" version="1.1" xmlns="http://www.w3.org/2000/svg" xmlns:xlink="http://www.w3.org/1999/xlink">
    <!-- Generator: Sketch 55.2 (78181) - https://sketchapp.com -->
    <title>filter_32x32</title>
    <desc>Created with Sketch.</desc>
    <g id="filter_32x32" stroke="none" stroke-width="1" fill="none" fill-rule="evenodd">
        <path d="M15.8739825,17 C15.4299397,18.7252272 13.8638394,20 12,20 C10.1361606,20 8.57006028,18.7252272 8.12601749,17 L3,17 L3,15 L8.12601749,15 C8.57006028,13.2747728 10.1361606,12 12,12 C13.8638394,12 15.4299397,13.2747728 15.8739825,15 L29,15 L29,17 L15.8739825,17 Z M21.1260175,26 L3,26 L3,24 L21.1260175,24 C21.5700603,22.2747728 23.1361606,21 25,21 C27.209139,21 29,22.790861 29,25 C29,27.209139 27.209139,29 25,29 C23.1361606,29 21.5700603,27.7252272 21.1260175,26 Z M21.1260175,8 L3,8 L3,6 L21.1260175,6 C21.5700603,4.27477279 23.1361606,3 25,3 C27.209139,3 29,4.790861 29,7 C29,9.209139 27.209139,11 25,11 C23.1361606,11 21.5700603,9.72522721 21.1260175,8 Z M12,18 C13.1045695,18 14,17.1045695 14,16 C14,14.8954305 13.1045695,14 12,14 C10.8954305,14 10,14.8954305 10,16 C10,17.1045695 10.8954305,18 12,18 Z M25,9 C26.1045695,9 27,8.1045695 27,7 C27,5.8954305 26.1045695,5 25,5 C23.8954305,5 23,5.8954305 23,7 C23,8.1045695 23.8954305,9 25,9 Z M25,27 C26.1045695,27 27,26.1045695 27,25 C27,23.8954305 26.1045695,23 25,23 C23.8954305,23 23,23.8954305 23,25 C23,26.1045695 23.8954305,27 25,27 Z" id="Path" fill="#000000" fill-rule="nonzero"></path>
    </g>
</svg>