<?xml version="1.0" encoding="UTF-8"?>
<svg width="32px" height="32px" viewBox="0 0 32 32" version="1.1" xmlns="http://www.w3.org/2000/svg" xmlns:xlink="http://www.w3.org/1999/xlink">
    <!-- Generator: Sketch 55.2 (78181) - https://sketchapp.com -->
    <title>help_32x32</title>
    <desc>Created with Sketch.</desc>
    <g id="help_32x32" stroke="none" stroke-width="1" fill="none" fill-rule="evenodd">
        <path d="M24.1128884,27.4110509 C21.8241312,29.0412155 19.0240337,30 16,30 C8.2680135,30 2,23.7319865 2,16 C2,8.2680135 8.2680135,2 16,2 C23.7319865,2 30,8.2680135 30,16 C30,19.1303183 28.972635,22.0206827 27.2366908,24.3523074 L25.8047217,22.9203383 C27.1875203,20.9647642 28,18.5772645 28,16 C28,9.372583 22.627417,4 16,4 C9.372583,4 4,9.372583 4,16 C4,22.627417 9.372583,28 16,28 C18.6060507,28 21.0180738,27.1692693 22.9857033,25.7581741 L23.006791,25.7792618 C23.1865522,25.6063248 23.4308593,25.5 23.7,25.5 C24.2522847,25.5 24.7,25.9477153 24.7,26.5 C24.7,26.9050572 24.4591711,27.2538659 24.1128884,27.4110509 Z M16,22 C16.8284271,22 17.5,22.6715729 17.5,23.5 C17.5,24.3284271 16.8284271,25 16,25 C15.1715729,25 14.5,24.3284271 14.5,23.5 C14.5,22.6715729 15.1715729,22 16,22 Z M12.9628869,11.1239052 C13.0273478,10.8939408 13.2199124,10.4833475 13.5671852,10.0730322 C14.1393779,9.39696594 14.9247557,9 16.031,9 C17.1815276,9 17.9436587,9.36454905 18.435199,9.98699786 C18.7883855,10.434246 18.979,11.0149483 18.979,11.375 C18.979,12.2897864 18.6447925,12.7840589 17.5154318,13.7720497 L17.3260889,13.9374665 C15.6755483,15.3813275 14.99,16.4284972 14.99,18.333 L15.0001124,19.0149908 C15.0083916,19.5672135 15.4627681,20.0081668 16.0149908,20 C16.5672135,19.9916084 17.0081668,19.5372319 16.9998876,18.9850092 L16.9898876,18.3180092 C16.99,17.1467945 17.3853911,16.5428377 18.6429111,15.4427835 L18.8322902,15.2773351 C20.3580684,13.9425491 20.979,13.0242291 20.979,11.375 C20.979,9.20140932 19.2405736,7 16.031,7 C14.3101193,7 12.9780596,7.67328406 12.0405648,8.78096784 C11.4820251,9.44090253 11.1726522,10.1005592 11.0371131,10.5840948 C10.8880486,11.1158825 11.198307,11.6678224 11.7300948,11.8168869 C12.2618825,11.9659514 12.8138224,11.655693 12.9628869,11.1239052 Z" id="Path" fill="#000000" fill-rule="nonzero"></path>
    </g>
</svg>