<?xml version="1.0" encoding="UTF-8"?>
<svg width="32px" height="32px" viewBox="0 0 32 32" version="1.1" xmlns="http://www.w3.org/2000/svg" xmlns:xlink="http://www.w3.org/1999/xlink">
    <!-- Generator: Sketch 55.2 (78181) - https://sketchapp.com -->
    <title>hide-pass_32x32</title>
    <desc>Created with Sketch.</desc>
    <g id="hide-pass_32x32" stroke="none" stroke-width="1" fill="none" fill-rule="evenodd">
        <path d="M23.138984,21.7247705 L26.7071068,25.2928932 C27.0976311,25.6834175 27.0976311,26.3165825 26.7071068,26.7071068 C26.3165825,27.0976311 25.6834175,27.0976311 25.2928932,26.7071068 L21.3245955,22.7388091 C19.5634804,23.5774322 17.7886581,24 16,24 C11.6663034,24 7.4138268,21.5193887 3.2407434,16.6507914 C2.9197522,16.2763016 2.9197522,15.7236984 3.2407434,15.3492086 C5.0983816,13.1819641 6.97175207,11.4879142 8.86101595,10.2752295 L5.29289322,6.70710678 C4.90236893,6.31658249 4.90236893,5.68341751 5.29289322,5.29289322 C5.68341751,4.90236893 6.31658249,4.90236893 6.70710678,5.29289322 L10.6754045,9.26119093 L12.1921903,10.7779767 L13.2426101,11.8283965 L14.7065845,13.292371 L18.707629,17.2934155 L20.1716035,18.7573899 L21.6872906,20.273077 L23.138984,21.7247705 Z M25.2032962,20.2032962 L23.7832385,18.7832385 C24.7400298,18.0002937 25.701947,17.0730488 26.6689603,16 C23.0403615,11.9735163 19.483519,10 16,10 C15.6835746,10 15.3665442,10.0162835 15.04891,10.04891 L13.3182737,8.3182737 C14.2087107,8.10636537 15.102614,8 16,8 C20.3336966,8 24.5861732,10.4806113 28.7592566,15.3492086 C29.0802478,15.7236984 29.0802478,16.2763016 28.7592566,16.6507914 C27.5802871,18.0262558 26.3949807,19.2111203 25.2032962,20.2032962 Z M16,11 C18.7614237,11 21,13.2385763 21,16 L16,11 Z M19.8078097,21.2220233 L18.7573899,20.1716035 C17.9669569,20.6951232 17.0190823,21 16,21 C13.2385763,21 11,18.7614237 11,16 C11,14.9809177 11.3048768,14.0330431 11.8283965,13.2426101 L10.3127094,11.726923 C8.66756265,12.7185671 7.00695459,14.1403169 5.33103966,16 C8.95963852,20.0264837 12.516481,22 16,22 C17.2597062,22 18.5290008,21.7419268 19.8078097,21.2220233 Z M13.292371,14.7065845 C13.1049522,15.0982198 13,15.5368535 13,16 C13,17.6568542 14.3431458,19 16,19 C16.4631465,19 16.9017802,18.8950478 17.2934155,18.707629 L13.292371,14.7065845 Z" id="Path" fill="#000000" fill-rule="nonzero"></path>
    </g>
</svg>