<?xml version="1.0" encoding="UTF-8"?>
<svg width="32px" height="32px" viewBox="0 0 32 32" version="1.1" xmlns="http://www.w3.org/2000/svg" xmlns:xlink="http://www.w3.org/1999/xlink">
    <!-- Generator: Sketch 55.2 (78181) - https://sketchapp.com -->
    <title>house_32x32</title>
    <desc>Created with Sketch.</desc>
    <g id="house_32x32" stroke="none" stroke-width="1" fill="none" fill-rule="evenodd">
        <path d="M12,27 L12,20 C12,18.8954305 12.8954305,18 14,18 L18,18 C19.1045695,18 20,18.8954305 20,20 L20,27 L25,27 L25,13.8284271 C25,13.5632106 24.8946432,13.3088567 24.7071068,13.1213203 L23.2928932,11.7071068 L24.7071068,10.2928932 L26.1213203,11.7071068 C26.6839295,12.2697159 27,13.0327777 27,13.8284271 L27,27 C27,28.1045695 26.1045695,29 25,29 L7,29 C5.8954305,29 5,28.1045695 5,27 L5,13.8284271 C5,13.0327777 5.31607052,12.2697159 5.87867966,11.7071068 L13.8786797,3.70710678 C15.0502525,2.53553391 16.9497475,2.53553391 18.1213203,3.70710678 L20.7071068,6.29289322 C21.0976311,6.68341751 21.0976311,7.31658249 20.7071068,7.70710678 C20.3165825,8.09763107 19.6834175,8.09763107 19.2928932,7.70710678 L16.7071068,5.12132034 C16.3165825,4.73079605 15.6834175,4.73079605 15.2928932,5.12132034 L7.29289322,13.1213203 C7.10535684,13.3088567 7,13.5632106 7,13.8284271 L7,27 L12,27 Z M14,20 L14,27 L18,27 L18,20 L14,20 Z" id="Path" fill="#000000" fill-rule="nonzero"></path>
    </g>
</svg>