<?xml version="1.0" encoding="UTF-8"?>
<svg width="32px" height="32px" viewBox="0 0 32 32" version="1.1" xmlns="http://www.w3.org/2000/svg" xmlns:xlink="http://www.w3.org/1999/xlink">
    <!-- Generator: Sketch 55.2 (78181) - https://sketchapp.com -->
    <title>info-circle_32x32</title>
    <desc>Created with Sketch.</desc>
    <g id="info-circle_32x32" stroke="none" stroke-width="1" fill="none" fill-rule="evenodd">
        <path d="M24.1128884,27.4110509 C21.8241312,29.0412155 19.0240337,30 16,30 C8.2680135,30 2,23.7319865 2,16 C2,8.2680135 8.2680135,2 16,2 C23.7319865,2 30,8.2680135 30,16 C30,19.1303183 28.972635,22.0206827 27.2366908,24.3523074 L25.8047217,22.9203383 C27.1875203,20.9647642 28,18.5772645 28,16 C28,9.372583 22.627417,4 16,4 C9.372583,4 4,9.372583 4,16 C4,22.627417 9.372583,28 16,28 C18.6060507,28 21.0180738,27.1692693 22.9857033,25.7581741 L23.006791,25.7792618 C23.1865522,25.6063248 23.4308593,25.5 23.7,25.5 C24.2522847,25.5 24.7,25.9477153 24.7,26.5 C24.7,26.9050572 24.4591711,27.2538659 24.1128884,27.4110509 Z M16,14 C16.5522847,14 17,14.4477153 17,15 L17,22 C17,22.5522847 16.5522847,23 16,23 C15.4477153,23 15,22.5522847 15,22 L15,15 C15,14.4477153 15.4477153,14 16,14 Z M16,9 C16.8284271,9 17.5,9.67157288 17.5,10.5 C17.5,11.3284271 16.8284271,12 16,12 C15.1715729,12 14.5,11.3284271 14.5,10.5 C14.5,9.67157288 15.1715729,9 16,9 Z" id="Path" fill="#000000" fill-rule="nonzero"></path>
    </g>
</svg>