<?xml version="1.0" encoding="UTF-8"?>
<svg width="32px" height="32px" viewBox="0 0 32 32" version="1.1" xmlns="http://www.w3.org/2000/svg" xmlns:xlink="http://www.w3.org/1999/xlink">
    <!-- Generator: Sketch 55.2 (78181) - https://sketchapp.com -->
    <title>insurance_32x32</title>
    <desc>Created with Sketch.</desc>
    <g id="insurance_32x32" stroke="none" stroke-width="1" fill="none" fill-rule="evenodd">
        <path d="M15,15 C14.4477153,15 14,14.5522847 14,14 C14,13.4477153 14.4477153,13 15,13 L23,13 C24.1045695,13 25,13.8954305 25,15 L25,25 C25,26.1045695 24.1045695,27 23,27 L9,27 C7.8954305,27 7,26.1045695 7,25 L7,15 C7,13.8954305 7.8954305,13 9,13 L10,13 L10,10 C10,6.6862915 12.6862915,4 16,4 C19.3137085,4 22,6.6862915 22,10 L22,14 L20,14 L20,10 C20,7.790861 18.209139,6 16,6 C13.790861,6 12,7.790861 12,10 L12,15 L9,15 L9,25 L23,25 L23,15 L15,15 Z M14,19 L18,19 C18.5522847,19 19,19.4477153 19,20 C19,20.5522847 18.5522847,21 18,21 L14,21 C13.4477153,21 13,20.5522847 13,20 C13,19.4477153 13.4477153,19 14,19 Z" id="Path" fill="#000000" fill-rule="nonzero"></path>
    </g>
</svg>