<?xml version="1.0" encoding="UTF-8"?>
<svg width="32px" height="32px" viewBox="0 0 32 32" version="1.1" xmlns="http://www.w3.org/2000/svg" xmlns:xlink="http://www.w3.org/1999/xlink">
    <!-- Generator: Sketch 55.2 (78181) - https://sketchapp.com -->
    <title>log-out_32x32</title>
    <desc>Created with Sketch.</desc>
    <g id="log-out_32x32" stroke="none" stroke-width="1" fill="none" fill-rule="evenodd">
        <path d="M6.41319838,17 L9.70731708,20.2960789 C10.0977252,20.6867194 10.0975369,21.3198843 9.70689642,21.7102924 C9.31625599,22.1007005 8.68309104,22.1005122 8.29268292,21.7098718 L3.29268292,16.7068964 C2.9023411,16.3163223 2.90245339,15.6832883 3.29293375,15.2928527 L8.29293375,10.2934259 C8.68348043,9.90292394 9.3166454,9.90296024 9.70714731,10.2935069 C10.0976492,10.6840536 10.0976129,11.3172186 9.70706625,11.7077205 L6.41440928,15 L17,15 C17.5522847,15 18,15.4477153 18,16 C18,16.5522847 17.5522847,17 17,17 L6.41319838,17 Z M27,3 C28.1045695,3 29,3.8954305 29,5 L29,27 C29,28.1045695 28.1045695,29 27,29 L12,29 L12,21 L14,21.0029753 L14,27 L27,27 L27,5 L14,5 L14,11 L12,11 L12,3 L27,3 Z" id="Path" fill="#000000" fill-rule="nonzero"></path>
    </g>
</svg>