<?xml version="1.0" encoding="UTF-8"?>
<svg width="32px" height="32px" viewBox="0 0 32 32" version="1.1" xmlns="http://www.w3.org/2000/svg" xmlns:xlink="http://www.w3.org/1999/xlink">
    <!-- Generator: Sketch 55.2 (78181) - https://sketchapp.com -->
    <title>mail_32x32</title>
    <desc>Created with Sketch.</desc>
    <g id="mail_32x32" stroke="none" stroke-width="1" fill="none" fill-rule="evenodd">
        <path d="M5,10.2364973 L5,22 C5,23.1045695 5.8954305,24 7,24 L25,24 C26.1045695,24 27,23.1045695 27,22 L27,21 L29,21 L29,22 C29,24.209139 27.209139,26 25,26 L7,26 C4.790861,26 3,24.209139 3,22 L3,10 C3,7.790861 4.790861,6 7,6 L25,6 C27.209139,6 29,7.790861 29,10 L29,16 C29,16.5522847 28.5522847,17 28,17 C27.4477153,17 27,16.5522847 27,16 L27,10.2364973 L16,18.2364973 L5,10.2364973 Z M5.83733798,8.37247576 L16,15.7635027 L26.162662,8.37247576 C25.8350206,8.13799916 25.433626,8 25,8 L7,8 C6.56637398,8 6.1649794,8.13799916 5.83733798,8.37247576 Z" id="Path" fill="#000000"></path>
    </g>
</svg>