<?xml version="1.0" encoding="UTF-8"?>
<svg width="32px" height="32px" viewBox="0 0 32 32" version="1.1" xmlns="http://www.w3.org/2000/svg" xmlns:xlink="http://www.w3.org/1999/xlink">
    <!-- Generator: Sketch 55.2 (78181) - https://sketchapp.com -->
    <title>menu_32x32</title>
    <desc>Created with Sketch.</desc>
    <g id="menu_32x32" stroke="none" stroke-width="1" fill="none" fill-rule="evenodd">
        <path d="M3,27 C2.44771525,27 2,26.5522847 2,26 C2,25.4477153 2.44771525,25 3,25 L29,25 C29.5522847,25 30,25.4477153 30,26 C30,26.5522847 29.5522847,27 29,27 L3,27 Z M3,17 C2.44771525,17 2,16.5522847 2,16 C2,15.4477153 2.44771525,15 3,15 L29,15 C29.5522847,15 30,15.4477153 30,16 C30,16.5522847 29.5522847,17 29,17 L3,17 Z M3,7 C2.44771525,7 2,6.55228475 2,6 C2,5.44771525 2.44771525,5 3,5 L29,5 C29.5522847,5 30,5.44771525 30,6 C30,6.55228475 29.5522847,7 29,7 L3,7 Z" id="Path" fill="#000000" fill-rule="nonzero"></path>
    </g>
</svg>