<?xml version="1.0" encoding="UTF-8"?>
<svg width="32px" height="32px" viewBox="0 0 32 32" version="1.1" xmlns="http://www.w3.org/2000/svg" xmlns:xlink="http://www.w3.org/1999/xlink">
    <!-- Generator: Sketch 55.2 (78181) - https://sketchapp.com -->
    <title>message_32x32</title>
    <desc>Created with Sketch.</desc>
    <g id="message_32x32" stroke="none" stroke-width="1" fill="none" fill-rule="evenodd">
        <path d="M24.9399893,26.7684164 L24.943235,26.7716621 C22.5177372,28.787674 19.4004456,30 16,30 C13.4922281,30 11.1384585,29.3406382 9.102598,28.1858215 C8.36753267,28.3952738 6,29 2,30 L3.79099199,22.8563648 C2.65054021,20.8299374 2,18.4909396 2,16 C2,8.2680135 8.2680135,2 16,2 C23.7319865,2 30,8.2680135 30,16 C30,18.887375 29.125914,21.5705963 27.6279166,23.7994895 L26.1819277,22.3535005 C27.33408,20.5109928 28,18.3332633 28,16 C28,9.372583 22.627417,4 16,4 C9.372583,4 4,9.372583 4,16 C4,18.0895267 4.53301113,20.0969672 5.53392751,21.8754592 L5.92472308,22.5698496 L4.75218012,27.2467099 C6.79587838,26.7303567 8.06947042,26.4005962 8.55452597,26.2623826 L9.36046157,26.0327363 L10.0893749,26.4462033 C11.8763563,27.4598464 13.8965592,28 16,28 C18.8479673,28 21.4642124,27.0078792 23.5219729,25.3504 L23.5315836,25.3600107 C23.7150184,25.1400055 23.9911592,25 24.3,25 C24.8522847,25 25.3,25.4477153 25.3,26 C25.3,26.3088408 25.1599945,26.5849816 24.9399893,26.7684164 Z M8,15 L8,13 L20,13 L20,15 L8,15 Z M8,19 L8,17 L24,17 L24,19 L8,19 Z" id="Path" fill="#000000" fill-rule="nonzero"></path>
    </g>
</svg>