<?xml version="1.0" encoding="UTF-8"?>
<svg width="32px" height="32px" viewBox="0 0 32 32" version="1.1" xmlns="http://www.w3.org/2000/svg" xmlns:xlink="http://www.w3.org/1999/xlink">
    <!-- Generator: Sketch 55.2 (78181) - https://sketchapp.com -->
    <title>motorbike_32x32</title>
    <desc>Created with Sketch.</desc>
    <g id="motorbike_32x32" stroke="none" stroke-width="1" fill="none" fill-rule="evenodd">
        <path d="M18.8292943,8 C18.6975921,8.37261981 18.4943639,8.71145207 18.2361065,9 L19,9 C20.6568542,9 22,10.3431458 22,12 L22,21 C22,22.6568542 20.6568542,24 19,24 L19,25 C19,26.6568542 17.6568542,28 16,28 C14.3431458,28 13,26.6568542 13,25 L13,21 C13,19.3431458 14.3431458,18 16,18 C17.6568542,18 19,19.3431458 19,21 L19,22 C19.5522847,22 20,21.5522847 20,21 L20,12 C20,11.4477153 19.5522847,11 19,11 L13,11 C12.4477153,11 12,11.4477153 12,12 L12,21 C12,21.5522847 11.5522847,22 11,22 C10.4477153,22 10,21.5522847 10,21 L10,12 C10,10.3431458 11.3431458,9 13,9 L13.7638935,9 C13.5056361,8.71145207 13.3024079,8.37261981 13.1707057,8 L11,8 C10.4477153,8 10,7.55228475 10,7 C10,6.44771525 10.4477153,6 11,6 L13.1707057,6 C13.5825421,4.83480763 14.6937812,4 16,4 C17.3062188,4 18.4174579,4.83480763 18.8292943,6 L21,6 C21.5522847,6 22,6.44771525 22,7 C22,7.55228475 21.5522847,8 21,8 L18.8292943,8 Z M18,12 C18.5522847,12 19,12.4477153 19,13 C19,13.5522847 18.5522847,14 18,14 C17.4477153,14 17,13.5522847 17,13 C17,12.4477153 17.4477153,12 18,12 Z M16,20 C15.4477153,20 15,20.4477153 15,21 L15,25 C15,25.5522847 15.4477153,26 16,26 C16.5522847,26 17,25.5522847 17,25 L17,21 C17,20.4477153 16.5522847,20 16,20 Z M16,6 C15.4477153,6 15,6.44771525 15,7 C15,7.55228475 15.4477153,8 16,8 C16.5522847,8 17,7.55228475 17,7 C17,6.44771525 16.5522847,6 16,6 Z" id="Path" fill="#000000" fill-rule="nonzero"></path>
    </g>
</svg>