<?xml version="1.0" encoding="UTF-8"?>
<svg width="16px" height="32px" viewBox="0 0 16 32" version="1.1" xmlns="http://www.w3.org/2000/svg" xmlns:xlink="http://www.w3.org/1999/xlink">
    <!-- Generator: Sketch 55.2 (78181) - https://sketchapp.com -->
    <title>overflow_16x32</title>
    <desc>Created with Sketch.</desc>
    <g id="overflow_16x32" stroke="none" stroke-width="1" fill="none" fill-rule="evenodd">
        <path d="M8,9 C6.8954305,9 6,8.1045695 6,7 C6,5.8954305 6.8954305,5 8,5 C9.1045695,5 10,5.8954305 10,7 C10,8.1045695 9.1045695,9 8,9 Z M8,18 C6.8954305,18 6,17.1045695 6,16 C6,14.8954305 6.8954305,14 8,14 C9.1045695,14 10,14.8954305 10,16 C10,17.1045695 9.1045695,18 8,18 Z M8,27 C6.8954305,27 6,26.1045695 6,25 C6,23.8954305 6.8954305,23 8,23 C9.1045695,23 10,23.8954305 10,25 C10,26.1045695 9.1045695,27 8,27 Z" id="Path" fill="#000000" fill-rule="nonzero"></path>
    </g>
</svg>