<?xml version="1.0" encoding="UTF-8"?>
<svg width="32px" height="32px" viewBox="0 0 32 32" version="1.1" xmlns="http://www.w3.org/2000/svg" xmlns:xlink="http://www.w3.org/1999/xlink">
    <!-- Generator: Sketch 55.2 (78181) - https://sketchapp.com -->
    <title>qr-code-scan_32x32</title>
    <desc>Created with Sketch.</desc>
    <g id="qr-code-scan_32x32" stroke="none" stroke-width="1" fill="none" fill-rule="evenodd">
        <path d="M27,20 L29,20 L29,27 C29,28.1045695 28.1045695,29 27,29 L20,29 L20,27 L27,27 L27,20 Z M4,17 C3.44771525,17 3,16.5522847 3,16 C3,15.4477153 3.44771525,15 4,15 L28,15 C28.5522847,15 29,15.4477153 29,16 C29,16.5522847 28.5522847,17 28,17 L4,17 Z M5,20 L5,27 L12,27 L12,29 L5,29 C3.8954305,29 3,28.1045695 3,27 L3,20 L5,20 Z M5,12 L3,12 L3,5 C3,3.8954305 3.8954305,3 5,3 L12,3 L12,5 L5,5 L5,12 Z M27,12 L27,5 L20,5 L20,3 L27,3 C28.1045695,3 29,3.8954305 29,5 L29,12 L27,12 Z M9,11 C9,10.4477153 9.44771525,10 10,10 C10.5522847,10 11,10.4477153 11,11 L11,21 C11,21.5522847 10.5522847,22 10,22 C9.44771525,22 9,21.5522847 9,21 L9,11 Z M12,11 C12,10.4477153 12.4477153,10 13,10 C13.5522847,10 14,10.4477153 14,11 L14,21 C14,21.5522847 13.5522847,22 13,22 C12.4477153,22 12,21.5522847 12,21 L12,11 Z M15,11 C15,10.4477153 15.4477153,10 16,10 C16.5522847,10 17,10.4477153 17,11 L17,21 C17,21.5522847 16.5522847,22 16,22 C15.4477153,22 15,21.5522847 15,21 L15,11 Z M18,11 C18,10.4477153 18.4477153,10 19,10 C19.5522847,10 20,10.4477153 20,11 L20,21 C20,21.5522847 19.5522847,22 19,22 C18.4477153,22 18,21.5522847 18,21 L18,11 Z M21,11 C21,10.4477153 21.4477153,10 22,10 C22.5522847,10 23,10.4477153 23,11 L23,21 C23,21.5522847 22.5522847,22 22,22 C21.4477153,22 21,21.5522847 21,21 L21,11 Z" id="Path" fill="#000000" fill-rule="nonzero"></path>
    </g>
</svg>