<?xml version="1.0" encoding="UTF-8"?>
<svg width="32px" height="32px" viewBox="0 0 32 32" version="1.1" xmlns="http://www.w3.org/2000/svg" xmlns:xlink="http://www.w3.org/1999/xlink">
    <!-- Generator: Sketch 55.2 (78181) - https://sketchapp.com -->
    <title>qr-code_32x32</title>
    <desc>Created with Sketch.</desc>
    <g id="qr-code_32x32" stroke="none" stroke-width="1" fill="none" fill-rule="evenodd">
        <path d="M7.896896,7 L10.103104,7 C10.598446,7 11,7.40155402 11,7.896896 L11,10.103104 C11,10.598446 10.598446,11 10.103104,11 L7.896896,11 C7.40155402,11 7,10.598446 7,10.103104 L7,7.896896 C7,7.40155402 7.40155402,7 7.896896,7 Z M7.896896,21 L10.071104,21 C10.566446,21 10.968,21.401554 10.968,21.896896 L10.968,24.103104 C10.968,24.598446 10.566446,25 10.071104,25 L7.896896,25 C7.40155402,25 7,24.598446 7,24.103104 L7,21.896896 C7,21.401554 7.40155402,21 7.896896,21 Z M21.896896,7 L24.071104,7 C24.566446,7 24.968,7.40155402 24.968,7.896896 L24.968,10.103104 C24.968,10.598446 24.566446,11 24.071104,11 L21.896896,11 C21.401554,11 21,10.598446 21,10.103104 L21,7.896896 C21,7.40155402 21.401554,7 21.896896,7 Z M21,23 L28,23 C28.5522847,23 29,23.4477153 29,24 L29,29 L27,29 L27,25 L21,25 C20.4477153,25 20,24.5522847 20,24 C20,23.4477153 20.4477153,23 21,23 Z M20,18 C20,17.4477153 20.4477153,17 21,17 C21.5522847,17 22,17.4477153 22,18 L22,20 L29,20 L29,22 L21,22 C20.4477153,22 20,21.5522847 20,21 L20,18 Z M9,17 C9.55228475,17 10,17.4477153 10,18 C10,18.5522847 9.55228475,19 9,19 L5,19 L5,27 L13,27 L13,17 L15,17 L15,28 C15,28.5522847 14.5522847,29 14,29 L5,29 C3.8954305,29 3,28.1045695 3,27 L3,18 C3,17.4477153 3.44771525,17 4,17 L9,17 Z M23,15 C22.4477153,15 22,14.5522847 22,14 C22,13.4477153 22.4477153,13 23,13 L27,13 L27,5 L19,5 L19,15 L17,15 L17,4 C17,3.44771525 17.4477153,3 18,3 L27,3 C28.1045695,3 29,3.8954305 29,5 L29,14 C29,14.5522847 28.5522847,15 28,15 L23,15 Z M9,13 C9.55228475,13 10,13.4477153 10,14 C10,14.5522847 9.55228475,15 9,15 L4,15 C3.44771525,15 3,14.5522847 3,14 L3,5 C3,3.8954305 3.8954305,3 5,3 L14,3 C14.5522847,3 15,3.44771525 15,4 L15,15 L13,15 L13,5 L5,5 L5,13 L9,13 Z M19,29 L17,29 L17,17 L19,17 L19,29 Z M26,29 L24,29 L24,26 L26,26 L26,29 Z" id="Path" fill="#000000" fill-rule="nonzero"></path>
    </g>
</svg>