<?xml version="1.0" encoding="UTF-8"?>
<svg width="32px" height="32px" viewBox="0 0 32 32" version="1.1" xmlns="http://www.w3.org/2000/svg" xmlns:xlink="http://www.w3.org/1999/xlink">
    <!-- Generator: Sketch 55.2 (78181) - https://sketchapp.com -->
    <title>save_32x32</title>
    <desc>Created with Sketch.</desc>
    <g id="save_32x32" stroke="none" stroke-width="1" fill="none" fill-rule="evenodd">
        <path d="M17,19.5857864 L21.2928932,15.2928932 C21.6834175,14.9023689 22.3165825,14.9023689 22.7071068,15.2928932 C23.0976311,15.6834175 23.0976311,16.3165825 22.7071068,16.7071068 L16.7071068,22.7071068 C16.3165825,23.0976311 15.6834175,23.0976311 15.2928932,22.7071068 L9.29289322,16.7071068 C8.90236893,16.3165825 8.90236893,15.6834175 9.29289322,15.2928932 C9.68341751,14.9023689 10.3165825,14.9023689 10.7071068,15.2928932 L15,19.5857864 L15,4 C15,3.44771525 15.4477153,3 16,3 C16.5522847,3 17,3.44771525 17,4 L17,19.5857864 Z M6.50783308,27 L25.9176893,27 C26.6986235,26.7810898 27,26.3775251 27,25.6027397 L27,21 L29,21 L29,25.6027397 C29,27.349701 28.0269338,28.5436068 26.2844866,28.9711867 L26.1670684,29 L6.50783308,29 C4.69780628,29 3.4924739,27.8478119 3.02567883,25.8279025 L3,25.7167854 L3,21 L5,21 L5,25.4842092 C5.27524388,26.5810642 5.73723731,27 6.50783308,27 Z" id="Path" fill="#000000"></path>
    </g>
</svg>