<?xml version="1.0" encoding="UTF-8"?>
<svg width="32px" height="32px" viewBox="0 0 32 32" version="1.1" xmlns="http://www.w3.org/2000/svg" xmlns:xlink="http://www.w3.org/1999/xlink">
    <!-- Generator: Sketch 55.2 (78181) - https://sketchapp.com -->
    <title>send_32x32</title>
    <desc>Created with Sketch.</desc>
    <g id="send_32x32" stroke="none" stroke-width="1" fill="none" fill-rule="evenodd">
        <path d="M7.79354641,22.8764949 C8.19746191,22.4998376 8.83024118,22.5219347 9.20689847,22.9258502 C9.58355576,23.3297657 9.56145863,23.962545 9.15754313,24.3392023 L6.23212832,27.0671957 C5.82821283,27.443853 5.19543355,27.4217559 4.81877626,27.0178404 C4.44211897,26.6139249 4.46421611,25.9811456 4.8681316,25.6044883 L7.79354641,22.8764949 Z M16.9934164,25.1605382 C17.3973319,24.7838809 18.0301112,24.805978 18.4067685,25.2098935 C18.7834258,25.613809 18.7613287,26.2465883 18.3574132,26.6232456 L15.4319984,29.351239 C15.0280829,29.7278963 14.3953036,29.7057992 14.0186463,29.3018837 C13.641989,28.8979682 13.6640861,28.2651889 14.0680016,27.8885316 L16.9934164,25.1605382 Z M6.6763264,14.3470272 C7.08024189,13.9703699 7.71302116,13.992467 8.08967846,14.3963825 C8.46633575,14.800298 8.44423861,15.4330773 8.04032312,15.8097346 L5.11490831,18.537728 C4.71099281,18.9143853 4.07821354,18.8922882 3.70155625,18.4883727 C3.32489895,18.0844572 3.34699609,17.4516779 3.75091159,17.0750206 L6.6763264,14.3470272 Z M15.3945166,14.9384007 L6.14702026,9.81449813 C5.68506549,9.55853575 5.3634117,9.10764161 5.2717401,8.58753079 C5.10397682,7.63570388 5.73958597,6.7280967 6.69141288,6.56033342 L27.465981,2.89873307 C27.7139835,2.85502164 27.9684987,2.86534937 28.2121443,2.92901094 C29.1472492,3.17334227 29.7072318,4.12946425 29.4629005,5.06456916 L27.5294918,12.4641112 C27.3898739,12.9984568 26.8435185,13.3184469 26.3091728,13.178829 C25.7748271,13.0392111 25.4548371,12.4928557 25.594455,11.95851 L27.0787378,6.27786243 L18.0381217,14.9136759 L22.2919883,24.081588 L24.0869859,17.869702 C24.2403025,17.3391245 24.7947082,17.0332942 25.3252857,17.1866108 C25.8558632,17.3399274 26.1616935,17.8943331 26.0083769,18.4249106 L24.0277989,25.2790282 C23.8871847,25.7656468 23.5426229,26.167468 23.083147,26.3806625 C22.2064271,26.7874563 21.1659337,26.4065059 20.7591399,25.529786 L18.4400984,20.5317992 L15.2704024,21.1657384 C14.8677819,21.2462625 14.4496666,21.1826533 14.0892079,20.9860395 C13.2407234,20.5232297 12.9280721,19.4602156 13.3908819,18.611731 L15.3945166,14.9384007 Z M25.1713718,5.33399495 L7.73409864,8.40738378 L16.7336537,13.3939057 L25.1713718,5.33399495 Z M17.5740946,18.6653922 L16.6849873,16.7491925 L15.4029335,19.0996244 L17.5740946,18.6653922 Z" id="Path" fill="#000000" fill-rule="nonzero"></path>
    </g>
</svg>