<?xml version="1.0" encoding="UTF-8"?>
<svg width="32px" height="32px" viewBox="0 0 32 32" version="1.1" xmlns="http://www.w3.org/2000/svg" xmlns:xlink="http://www.w3.org/1999/xlink">
    <!-- Generator: Sketch 55.2 (78181) - https://sketchapp.com -->
    <title>share_32x32</title>
    <desc>Created with Sketch.</desc>
    <g id="share_32x32" stroke="none" stroke-width="1" fill="none" fill-rule="evenodd">
        <path d="M11.1176106,19.1768393 C10.297755,20.2830042 8.98260917,21 7.5,21 C5.01471863,21 3,18.9852814 3,16.5 C3,14.0147186 5.01471863,12 7.5,12 C9.13794048,12 10.5714895,12.8751037 11.35861,14.1832738 L20.4335908,9.42971245 C20.1555751,8.84490111 20,8.19061881 20,7.5 C20,5.01471863 22.0147186,3 24.5,3 C26.9852814,3 29,5.01471863 29,7.5 C29,9.98528137 26.9852814,12 24.5,12 C23.4419454,12 22.4691777,11.6348432 21.7008455,11.023678 L11.9836457,16.1136398 C11.9944747,16.2409882 12,16.3698488 12,16.5 C12,16.7879823 11.9729483,17.0696464 11.9212473,17.3425897 L20.8823894,21.8231607 C21.702245,20.7169958 23.0173908,20 24.5,20 C26.9852814,20 29,22.0147186 29,24.5 C29,26.9852814 26.9852814,29 24.5,29 C22.0147186,29 20,26.9852814 20,24.5 C20,24.2120177 20.0270517,23.9303536 20.0787527,23.6574103 L11.1176106,19.1768393 Z M24.5,10 C25.8807119,10 27,8.88071187 27,7.5 C27,6.11928813 25.8807119,5 24.5,5 C23.1192881,5 22,6.11928813 22,7.5 C22,8.88071187 23.1192881,10 24.5,10 Z M24.5,27 C25.8807119,27 27,25.8807119 27,24.5 C27,23.1192881 25.8807119,22 24.5,22 C23.1192881,22 22,23.1192881 22,24.5 C22,25.8807119 23.1192881,27 24.5,27 Z M7.5,19 C8.88071187,19 10,17.8807119 10,16.5 C10,15.1192881 8.88071187,14 7.5,14 C6.11928813,14 5,15.1192881 5,16.5 C5,17.8807119 6.11928813,19 7.5,19 Z" id="Path" fill="#000000" fill-rule="nonzero"></path>
    </g>
</svg>