<?xml version="1.0" encoding="UTF-8"?>
<svg width="32px" height="32px" viewBox="0 0 32 32" version="1.1" xmlns="http://www.w3.org/2000/svg" xmlns:xlink="http://www.w3.org/1999/xlink">
    <!-- Generator: Sketch 55.2 (78181) - https://sketchapp.com -->
    <title>show-pass_32x32</title>
    <desc>Created with Sketch.</desc>
    <g id="show-pass_32x32" stroke="none" stroke-width="1" fill="none" fill-rule="evenodd">
        <path d="M16,24 C11.6663034,24 7.4138268,21.5193887 3.2407434,16.6507914 C2.9197522,16.2763016 2.9197522,15.7236984 3.2407434,15.3492086 C7.4138268,10.4806113 11.6663034,8 16,8 C20.3336966,8 24.5861732,10.4806113 28.7592566,15.3492086 C29.0802478,15.7236984 29.0802478,16.2763016 28.7592566,16.6507914 C24.5861732,21.5193887 20.3336966,24 16,24 Z M16,10 C12.516481,10 8.95963852,11.9735163 5.33103966,16 C8.95963852,20.0264837 12.516481,22 16,22 C19.483519,22 23.0403615,20.0264837 26.6689603,16 C23.0403615,11.9735163 19.483519,10 16,10 Z M16,21 C13.2385763,21 11,18.7614237 11,16 C11,13.2385763 13.2385763,11 16,11 C18.7614237,11 21,13.2385763 21,16 C21,18.7614237 18.7614237,21 16,21 Z M16,19 C17.6568542,19 19,17.6568542 19,16 C19,14.3431458 17.6568542,13 16,13 C14.3431458,13 13,14.3431458 13,16 C13,17.6568542 14.3431458,19 16,19 Z" id="Path" fill="#000000" fill-rule="nonzero"></path>
    </g>
</svg>