<?xml version="1.0" encoding="UTF-8"?>
<svg width="32px" height="32px" viewBox="0 0 32 32" version="1.1" xmlns="http://www.w3.org/2000/svg" xmlns:xlink="http://www.w3.org/1999/xlink">
    <!-- Generator: Sketch 55.2 (78181) - https://sketchapp.com -->
    <title>summary_32x32</title>
    <desc>Created with Sketch.</desc>
    <g id="summary_32x32" stroke="none" stroke-width="1" fill="none" fill-rule="evenodd">
        <path d="M19,4 L7,4 L7,28 L25,28 L25,19 C25,18.4477153 25.4477153,18 26,18 C26.5522847,18 27,18.4477153 27,19 L27,28 C27,29.1045695 26.1045695,30 25,30 L7,30 C5.8954305,30 5,29.1045695 5,28 L5,4 C5,2.8954305 5.8954305,2 7,2 L20,2 C20.2652165,2 20.5195704,2.10535684 20.7071068,2.29289322 L26.7071068,8.29289322 C26.8946432,8.4804296 27,8.73478351 27,9 L27,13 C27,13.5522847 26.5522847,14 26,14 C25.4477153,14 25,13.5522847 25,13 L25,10 L21,10 C19.8954305,10 19,9.1045695 19,8 L19,4 Z M23.5857864,8 L21,5.41421356 L21,8 L23.5857864,8 Z M10,12 L12,12 C12.5522847,12 13,12.4477153 13,13 C13,13.5522847 12.5522847,14 12,14 L10,14 C9.44771525,14 9,13.5522847 9,13 C9,12.4477153 9.44771525,12 10,12 Z M16,12 L20,12 C20.5522847,12 21,12.4477153 21,13 C21,13.5522847 20.5522847,14 20,14 L16,14 C15.4477153,14 15,13.5522847 15,13 C15,12.4477153 15.4477153,12 16,12 Z M10,16 L22,16 C22.5522847,16 23,16.4477153 23,17 C23,17.5522847 22.5522847,18 22,18 L10,18 C9.44771525,18 9,17.5522847 9,17 C9,16.4477153 9.44771525,16 10,16 Z M10,20 L22,20 C22.5522847,20 23,20.4477153 23,21 C23,21.5522847 22.5522847,22 22,22 L10,22 C9.44771525,22 9,21.5522847 9,21 C9,20.4477153 9.44771525,20 10,20 Z M10,24 L14,24 C14.5522847,24 15,24.4477153 15,25 C15,25.5522847 14.5522847,26 14,26 L10,26 C9.44771525,26 9,25.5522847 9,25 C9,24.4477153 9.44771525,24 10,24 Z" id="Path" fill="#000000" fill-rule="nonzero"></path>
    </g>
</svg>