<?xml version="1.0" encoding="UTF-8"?>
<svg width="32px" height="32px" viewBox="0 0 32 32" version="1.1" xmlns="http://www.w3.org/2000/svg" xmlns:xlink="http://www.w3.org/1999/xlink">
    <!-- Generator: Sketch 55.2 (78181) - https://sketchapp.com -->
    <title>system_32x32</title>
    <desc>Created with Sketch.</desc>
    <g id="system_32x32" stroke="none" stroke-width="1" fill="none" fill-rule="evenodd">
        <path d="M30,19 L30,24 C30,26.209139 28.209139,28 26,28 L6,28 C3.790861,28 2,26.209139 2,24 L2,8 C2,5.790861 3.790861,4 6,4 L26,4 C28.209139,4 30,5.790861 30,8 L30,14 L28,14 L28,8 C28,6.8954305 27.1045695,6 26,6 L6,6 C4.8954305,6 4,6.8954305 4,8 L4,24 C4,25.1045695 4.8954305,26 6,26 L26,26 C27.1045695,26 28,25.1045695 28,24 L28,19 C28,18.4477153 28.4477153,18 29,18 C29.5522847,18 30,18.4477153 30,19 Z M11.9486833,16.3162278 C11.8125693,16.7245699 11.4304304,17 11,17 L7,17 C6.44771525,17 6,16.5522847 6,16 C6,15.4477153 6.44771525,15 7,15 L10.2792408,15 L11.0513167,12.6837722 C11.3552155,11.7720759 12.6447845,11.7720759 12.9486833,12.6837722 L15,18.8377223 L18.0513167,9.68377223 C18.3552155,8.77207592 19.6447845,8.77207592 19.9486833,9.68377223 L21.7207592,15 L25,15 C25.5522847,15 26,15.4477153 26,16 C26,16.5522847 25.5522847,17 25,17 L21,17 C20.5695696,17 20.1874307,16.7245699 20.0513167,16.3162278 L19,13.1622777 L15.9486833,22.3162278 C15.6447845,23.2279241 14.3552155,23.2279241 14.0513167,22.3162278 L12,16.1622777 L11.9486833,16.3162278 Z" id="Path" fill="#000000" fill-rule="nonzero"></path>
    </g>
</svg>