<?xml version="1.0" encoding="UTF-8"?>
<svg width="32px" height="32px" viewBox="0 0 32 32" version="1.1" xmlns="http://www.w3.org/2000/svg" xmlns:xlink="http://www.w3.org/1999/xlink">
    <!-- Generator: Sketch 55.2 (78181) - https://sketchapp.com -->
    <title>ticket_32x32</title>
    <desc>Created with Sketch.</desc>
    <g id="ticket_32x32" stroke="none" stroke-width="1" fill="none" fill-rule="evenodd">
        <path d="M27,19 C27,19.5522847 26.5522847,20 26,20 C25.4477153,20 25,19.5522847 25,19 L25,3.76619038 L23.1811624,4.85749293 C22.86448,5.04750236 22.4688533,5.04750236 22.1521709,4.85749293 L19.3333333,3.16619038 L16.5144958,4.85749293 C16.1978134,5.04750236 15.8021866,5.04750236 15.4855042,4.85749293 L12.6666667,3.16619038 L9.84782909,4.85749293 C9.5311467,5.04750236 9.13551997,5.04750236 8.81883758,4.85749293 L7,3.76619038 L7,28.2338096 L8.81883758,27.1425071 C9.13551997,26.9524976 9.5311467,26.9524976 9.84782909,27.1425071 L12.6666667,28.8338096 L15.4855042,27.1425071 C15.8021866,26.9524976 16.1978134,26.9524976 16.5144958,27.1425071 L19.3333333,28.8338096 L22.1521709,27.1425071 C22.4688533,26.9524976 22.86448,26.9524976 23.1811624,27.1425071 L25,28.2338096 L25,24 L27,24 L27,28.5055312 C27,28.8401354 26.9090625,29.1684488 26.73691,29.4553695 C26.2123288,30.3296716 25.0783099,30.6131763 24.2040078,30.0885951 L22.6666667,29.1661904 L20.2831717,30.5962874 C19.6985272,30.947074 18.9681394,30.947074 18.383495,30.5962874 L16,29.1661904 L13.616505,30.5962874 C13.0318606,30.947074 12.3014728,30.947074 11.7168283,30.5962874 L9.33333333,29.1661904 L7.79575916,30.0887349 C7.50886233,30.260873 7.18057632,30.3518029 6.846,30.3518029 C5.82648235,30.3518029 5,29.5253206 5,28.5058029 L5,3.49446878 C5,3.15986457 5.09093754,2.83155121 5.26308998,2.54463046 C5.7876712,1.67032844 6.92169013,1.3868237 7.79599216,1.91140492 L9.33333333,2.83380962 L11.7168283,1.40371261 C12.3014728,1.05292597 13.0318606,1.05292597 13.616505,1.40371261 L16,2.83380962 L18.383495,1.40371261 C18.9681394,1.05292597 19.6985272,1.05292597 20.2831717,1.40371261 L22.6666667,2.83380962 L24.2040078,1.91140492 C24.4909286,1.73925247 24.8192419,1.64831494 25.1538462,1.64831494 C26.1734488,1.64831494 27,2.47486617 27,3.49446878 L27,19 Z M10,7 L19,7 C19.5522847,7 20,7.44771525 20,8 C20,8.55228475 19.5522847,9 19,9 L10,9 C9.44771525,9 9,8.55228475 9,8 C9,7.44771525 9.44771525,7 10,7 Z M10,11 L16,11 C16.5522847,11 17,11.4477153 17,12 C17,12.5522847 16.5522847,13 16,13 L10,13 C9.44771525,13 9,12.5522847 9,12 C9,11.4477153 9.44771525,11 10,11 Z M10,15 L14,15 C14.5522847,15 15,15.4477153 15,16 C15,16.5522847 14.5522847,17 14,17 L10,17 C9.44771525,17 9,16.5522847 9,16 C9,15.4477153 9.44771525,15 10,15 Z M10,21 L14,21 C14.5522847,21 15,21.4477153 15,22 C15,22.5522847 14.5522847,23 14,23 L10,23 C9.44771525,23 9,22.5522847 9,22 C9,21.4477153 9.44771525,21 10,21 Z" id="Path" fill="#000000" fill-rule="nonzero"></path>
    </g>
</svg>