<?xml version="1.0" encoding="UTF-8"?>
<svg width="32px" height="32px" viewBox="0 0 32 32" version="1.1" xmlns="http://www.w3.org/2000/svg" xmlns:xlink="http://www.w3.org/1999/xlink">
    <!-- Generator: Sketch 52.5 (67469) - http://www.bohemiancoding.com/sketch -->
    <title>trash_32x32</title>
    <desc>Created with Sketch.</desc>
    <g id="trash_32x32" stroke="none" stroke-width="1" fill="none" fill-rule="evenodd">
        <path d="M6,9 L5,9 C4.44771525,9 4,8.55228475 4,8 C4,7.44771525 4.44771525,7 5,7 L10,7 L10,6 C10,4.34314575 11.3431458,3 13,3 L19,3 C20.6568542,3 22,4.34314575 22,6 L22,7 L27,7 C27.5522847,7 28,7.44771525 28,8 C28,8.55228475 27.5522847,9 27,9 L8,9 L8,27 L24,27 L24,12 C24,11.4477153 24.4477153,11 25,11 C25.5522847,11 26,11.4477153 26,12 L26,27 C26,28.1045695 25.1045695,29 24,29 L8,29 C6.8954305,29 6,28.1045695 6,27 L6,9 Z M18,14 C18,13.4477153 18.4477153,13 19,13 C19.5522847,13 20,13.4477153 20,14 L20,22 C20,22.5522847 19.5522847,23 19,23 C18.4477153,23 18,22.5522847 18,22 L18,14 Z M12,14 C12,13.4477153 12.4477153,13 13,13 C13.5522847,13 14,13.4477153 14,14 L14,22 C14,22.5522847 13.5522847,23 13,23 C12.4477153,23 12,22.5522847 12,22 L12,14 Z M20,7 L20,6 C20,5.44771525 19.5522847,5 19,5 L13,5 C12.4477153,5 12,5.44771525 12,6 L12,7 L20,7 Z" id="Path-2" fill="#000000" fill-rule="nonzero"></path>
    </g>
</svg>