<?xml version="1.0" encoding="UTF-8"?>
<svg width="32px" height="32px" viewBox="0 0 32 32" version="1.1" xmlns="http://www.w3.org/2000/svg" xmlns:xlink="http://www.w3.org/1999/xlink">
    <!-- Generator: Sketch 55.2 (78181) - https://sketchapp.com -->
    <title>tv_32x32</title>
    <desc>Created with Sketch.</desc>
    <g id="tv_32x32" stroke="none" stroke-width="1" fill="none" fill-rule="evenodd">
        <path d="M14,24.0125 L4,24.0125 C2.88852694,24.0125 1.9875,23.1114731 1.9875,22 L1.9875,7 C1.9875,5.88852694 2.88852694,4.9875 4,4.9875 L28,4.9875 C29.1114731,4.9875 30.0125,5.88852694 30.0125,7 L30.0125,15 C30.0125,15.5591883 29.5591883,16.0125 29,16.0125 C28.4408117,16.0125 27.9875,15.5591883 27.9875,15 L27.9875,7.0125 L4.0125,7.0125 L4.0125,21.9875 L27.9875,21.9875 L27.9875,21 C27.9875,20.9457115 27.9917726,20.8924209 28,20.8404462 L28,20 L28.8404462,20 C28.8924209,19.9917726 28.9457115,19.9875 29,19.9875 C29.0542885,19.9875 29.1075791,19.9917726 29.1595538,20 L30,20 L30,20.8404462 C30.0082274,20.8924209 30.0125,20.9457115 30.0125,21 L30.0125,22 C30.0125,23.1114731 29.1114731,24.0125 28,24.0125 L18,24.0125 L18,26 L23,26 C23.5522847,26 24,26.4477153 24,27 C24,27.5522847 23.5522847,28 23,28 L9,28 C8.44771525,28 8,27.5522847 8,27 C8,26.4477153 8.44771525,26 9,26 L14,26 L14,24.0125 Z" id="Path" fill="#000000" fill-rule="nonzero"></path>
    </g>
</svg>