<?xml version="1.0" encoding="UTF-8"?>
<svg width="32px" height="32px" viewBox="0 0 32 32" version="1.1" xmlns="http://www.w3.org/2000/svg" xmlns:xlink="http://www.w3.org/1999/xlink">
    <!-- Generator: Sketch 55.2 (78181) - https://sketchapp.com -->
    <title>user_32x32</title>
    <desc>Created with Sketch.</desc>
    <g id="user_32x32" stroke="none" stroke-width="1" fill="none" fill-rule="evenodd">
        <path d="M11.8863024,15.6643116 C10.1370829,14.391752 9,12.328666 9,10 C9,6.13400675 12.1340068,3 16,3 C19.8659932,3 23,6.13400675 23,10 C23,13.8659932 19.8659932,17 16,17 C10.2619574,17 5.55007179,21.3935 5.04484302,27 L26.9549661,27 C26.6665434,23.8098766 25.0080253,20.9311922 22.4222163,19.0683235 C21.9741076,18.745497 21.8725463,18.1205304 22.1953728,17.6724216 C22.5181994,17.2243129 23.1431659,17.1227516 23.5912747,17.4455781 C26.9611051,19.8732715 29,23.7668192 29,28 L29,29 L23.1900328,29 L4,29 L3,29 L3,28 C3,22.2579777 6.72273548,17.3854469 11.8863024,15.6643116 Z M16,15 C18.7614237,15 21,12.7614237 21,10 C21,7.23857625 18.7614237,5 16,5 C13.2385763,5 11,7.23857625 11,10 C11,12.7614237 13.2385763,15 16,15 Z" id="Path" fill="#000000" fill-rule="nonzero"></path>
    </g>
</svg>