<svg width="30" height="30" viewBox="0 0 30 30" fill="none" xmlns="http://www.w3.org/2000/svg">
<path fill-rule="evenodd" clip-rule="evenodd" d="M5.7913 7.59623C6.29796 7.08957 6.98515 6.80493 7.70167 6.80493H13.6575C14.2098 6.80493 14.6575 7.25265 14.6575 7.80493C14.6575 8.35722 14.2098 8.80493 13.6575 8.80493H7.70167C7.51558 8.80493 7.3371 8.87886 7.20552 9.01045C7.07393 9.14204 7 9.32051 7 9.50661V21.4183C7 21.6044 7.07393 21.7829 7.20552 21.9145C7.33711 22.0461 7.51558 22.12 7.70167 22.12H19.6134C19.7995 22.12 19.978 22.0461 20.1095 21.9145C20.2411 21.7829 20.3151 21.6044 20.3151 21.4183V15.4625C20.3151 14.9102 20.7628 14.4625 21.3151 14.4625C21.8673 14.4625 22.3151 14.9102 22.3151 15.4625V21.4183C22.3151 22.1348 22.0304 22.822 21.5238 23.3287C21.0171 23.8354 20.3299 24.12 19.6134 24.12H7.70167C6.98514 24.12 6.29796 23.8354 5.7913 23.3287C5.28464 22.822 5 22.1348 5 21.4183V9.50661C5 8.79008 5.28464 8.1029 5.7913 7.59623Z" fill="#828282"/>
<path fill-rule="evenodd" clip-rule="evenodd" d="M21.3155 7C21.1021 7 20.8973 7.0848 20.7464 7.23575L12.8593 15.1228L12.4799 16.6406L13.9976 16.2611L21.8847 8.37405C22.0356 8.2231 22.1204 8.01837 22.1204 7.8049C22.1204 7.59143 22.0356 7.3867 21.8847 7.23575C21.7337 7.0848 21.529 7 21.3155 7ZM19.3322 5.82154C19.8582 5.29552 20.5716 5 21.3155 5C22.0594 5 22.7729 5.29552 23.2989 5.82154C23.8249 6.34756 24.1204 7.06099 24.1204 7.8049C24.1204 8.5488 23.8249 9.26224 23.2989 9.78826L15.2159 17.8712C15.0878 17.9994 14.9272 18.0903 14.7514 18.1342L11.348 18.9851C11.0073 19.0703 10.6468 18.9704 10.3984 18.722C10.15 18.4737 10.0502 18.1132 10.1353 17.7724L10.9862 14.3691C11.0301 14.1932 11.1211 14.0326 11.2492 13.9045L19.3322 5.82154Z" fill="#828282"/>
</svg>
