<svg width="16" height="16" viewBox="0 0 16 16" fill="none" xmlns="http://www.w3.org/2000/svg">
<path fill-rule="evenodd" clip-rule="evenodd" d="M6.69387 0.582562C5.22642 -0.268401 3.27772 -0.182966 1.89973 0.811745C0.988081 1.45048 0.328573 2.44112 0.099474 3.53144C-0.131659 4.5987 0.0438938 5.74529 0.585463 6.6939C0.361108 8.01204 0.479725 9.38985 0.951479 10.6422C1.60285 12.395 2.93475 13.88 4.60487 14.7194C6.04182 15.453 7.71669 15.6897 9.30479 15.4164C10.7309 16.2423 12.6118 16.1901 13.981 15.2693C14.9699 14.6231 15.685 13.5714 15.9121 12.4113C16.1269 11.3596 15.9432 10.2374 15.4132 9.3051C15.6287 8.05544 15.5325 6.75153 15.1184 5.55205C14.5158 3.7796 13.2218 2.25872 11.5741 1.37318C10.0978 0.568322 8.3484 0.295743 6.69387 0.582562ZM5.53522 1.31488C4.58154 0.99009 3.48349 1.13045 2.6464 1.69256C1.72458 2.29196 1.13624 3.37075 1.14641 4.47192C1.13285 5.19405 1.40465 5.88431 1.78897 6.48371C1.54021 7.62692 1.55851 8.83522 1.92656 9.95062C2.50067 11.7651 3.93288 13.2785 5.71077 13.9559C6.91523 14.4299 8.25594 14.4909 9.51531 14.2149C9.88268 14.4285 10.2562 14.6448 10.673 14.7458C11.7182 15.0313 12.8908 14.7587 13.7028 14.0427C14.5345 13.3321 14.9764 12.1943 14.8286 11.1087C14.7683 10.5324 14.5114 10.0035 14.2132 9.51463C14.466 8.35312 14.4403 7.12312 14.0566 5.99348C13.452 4.14035 11.9486 2.61268 10.107 1.97599C8.95002 1.56169 7.68116 1.52372 6.4855 1.78477C6.45306 1.76618 6.42064 1.74746 6.38819 1.72873C6.11416 1.57055 5.83823 1.41128 5.53522 1.31488Z" fill="#00AFF0"/>
<path d="M7.01172 3.44124C8.09554 3.27715 9.23765 3.44327 10.2049 3.96809C10.6278 4.2027 11.0372 4.52003 11.2338 4.97568C11.3619 5.27539 11.3761 5.66663 11.1396 5.91751C10.8834 6.17992 10.4652 6.2606 10.1215 6.15008C9.72363 5.98328 9.52571 5.56627 9.18817 5.3181C8.76386 4.96823 8.19246 4.87398 7.65767 4.88347C7.26658 4.90042 6.84769 4.98925 6.56234 5.27674C6.29867 5.55814 6.20106 6.04024 6.45795 6.35689C6.70061 6.63693 7.07544 6.74135 7.41909 6.83695C8.07453 7.00104 8.73742 7.13327 9.39557 7.28854C10.0802 7.44517 10.7715 7.74487 11.2236 8.30292C12.0031 9.31322 11.8276 10.9155 10.8583 11.7427C10.0829 12.4296 9.00448 12.6194 7.99997 12.6255C6.92767 12.6099 5.7815 12.3902 4.95728 11.6566C4.54382 11.2837 4.19611 10.7209 4.32082 10.1452C4.45706 9.57292 5.24264 9.35594 5.68796 9.70785C6.02822 9.98111 6.21259 10.3968 6.54065 10.6822C6.9331 11.0423 7.48009 11.1853 8.00336 11.1725C8.51646 11.186 9.06141 11.0287 9.4132 10.6381C9.65246 10.3744 9.77921 9.97297 9.624 9.6353C9.49657 9.31797 9.16919 9.14506 8.85604 9.05963C8.27855 8.90842 7.69699 8.77077 7.11949 8.61821C6.48507 8.46294 5.82556 8.32122 5.27992 7.94287C4.85426 7.66012 4.53162 7.2187 4.42792 6.71558C4.25372 5.92632 4.37844 5.01569 4.95186 4.4129C5.47649 3.82909 6.25461 3.55787 7.01172 3.44124Z" fill="#00AFF0"/>
</svg>
