<svg width="22" height="22" viewBox="0 0 22 22" fill="none" xmlns="http://www.w3.org/2000/svg">
<path d="M9.15391 0.887529L9.18535 0.90576L9.22116 0.899553C11.4746 0.508918 13.857 0.880365 15.8665 1.97592L15.867 1.9762C18.1106 3.18193 19.8727 5.25325 20.6931 7.66625L20.6932 7.6667C21.257 9.29958 21.3882 11.0753 21.0946 12.7775L21.0885 12.8128L21.1062 12.8439C21.8232 14.1051 22.0717 15.6235 21.7811 17.0455L21.781 17.0463C21.474 18.6147 20.5066 20.0376 19.1692 20.9116L19.1681 20.9123C17.3176 22.1568 14.7725 22.2277 12.8442 21.1111L12.8128 21.0929L12.7771 21.099C10.614 21.4712 8.33307 21.1487 6.37717 20.1501L6.3766 20.1498C4.10272 19.0069 2.28884 16.9846 1.40202 14.5982L1.40187 14.5978C0.759698 12.893 0.597962 11.0166 0.903594 9.22089L0.909599 9.18561L0.891855 9.15453C0.159461 7.87168 -0.0780857 6.32031 0.234513 4.87689L0.23464 4.87629C0.544371 3.40223 1.43654 2.06191 2.66951 1.19805L2.66952 1.19806L2.67066 1.19723C4.53299 -0.147103 7.16984 -0.263012 9.15391 0.887529ZM10.5275 6.61479L10.5275 6.61475L10.525 6.61486C9.97963 6.6385 9.37169 6.76248 8.95224 7.18508L8.95221 7.18505L8.95024 7.18715C8.56535 7.59791 8.40753 8.31745 8.80203 8.80372L8.80199 8.80376L8.80411 8.80621C9.15778 9.21436 9.69869 9.36482 10.162 9.4937L10.1744 9.49715L10.1744 9.49719L10.177 9.49782C10.7014 9.62912 11.2327 9.74633 11.7624 9.86323C12.142 9.94699 12.5209 10.0306 12.896 10.1191L12.8966 10.1192C13.8274 10.3322 14.7525 10.7367 15.354 11.4785C16.3921 12.8251 16.1576 14.9672 14.8652 16.0702L14.8652 16.0701L14.8638 16.0714C13.8252 16.9914 12.373 17.2516 11.0003 17.2601C9.53528 17.2387 7.98937 16.938 6.88305 15.9534C6.32482 15.4498 5.87918 14.7105 6.03864 13.9718C6.12256 13.6211 6.40685 13.3726 6.75075 13.2681C7.09554 13.1633 7.48295 13.2088 7.75864 13.4265C7.98113 13.6053 8.15445 13.8319 8.33331 14.0717C8.34148 14.0826 8.34967 14.0936 8.35787 14.1046C8.52663 14.3311 8.70289 14.5676 8.92675 14.7626C9.49002 15.2788 10.2685 15.4798 11.0045 15.4622C11.7282 15.4807 12.5087 15.2591 13.0173 14.6945C13.3632 14.3131 13.5586 13.7204 13.3249 13.209C13.1312 12.7297 12.6427 12.4804 12.2034 12.3605L12.2024 12.3603C11.8224 12.2608 11.4413 12.1656 11.0607 12.0705L11.0074 12.0572C10.6089 11.9577 10.2111 11.858 9.81485 11.7534L9.81485 11.7533L9.81308 11.7529C9.75379 11.7384 9.69447 11.724 9.63517 11.7096C8.81561 11.5106 7.99922 11.3124 7.31688 10.8393L7.31689 10.8392L7.31522 10.8381C6.74951 10.4624 6.32304 9.87701 6.18633 9.21374L6.18634 9.21373L6.18604 9.21237C5.95117 8.14822 6.12274 6.93403 6.88126 6.13666L6.88129 6.13668L6.88319 6.13457C7.58218 5.35673 8.62517 4.98939 9.65631 4.83054C11.1269 4.60794 12.6748 4.83375 13.9836 5.5438C14.5582 5.8626 15.0974 6.28514 15.3546 6.88099C15.5228 7.27469 15.5305 7.76357 15.2447 8.06735C14.9229 8.3964 14.3914 8.50217 13.9518 8.36247C13.7018 8.25658 13.5105 8.07122 13.3184 7.8592C13.2839 7.82106 13.2491 7.78184 13.214 7.74213C13.0576 7.56547 12.8925 7.37902 12.6952 7.23348C12.085 6.7316 11.2716 6.60158 10.5275 6.61479ZM7.64221 1.71297C6.30215 1.25694 4.7605 1.45388 3.58366 2.24383C2.28872 3.08616 1.46251 4.60033 1.4763 6.14841C1.45781 7.15289 1.83032 8.10813 2.35342 8.9342C2.01735 10.5088 2.04594 12.1731 2.55387 13.7129C3.35257 16.2365 5.34359 18.3404 7.8162 19.2826C9.48068 19.9375 11.3295 20.0251 13.0668 19.6515C13.5593 19.9377 14.0745 20.2325 14.6505 20.3724C16.1195 20.7731 17.7656 20.3903 18.9069 19.3842C20.0752 18.3857 20.6959 16.7887 20.4887 15.2626C20.4046 14.4622 20.053 13.7315 19.6493 13.0647C19.9912 11.4641 19.9524 9.76934 19.4227 8.20946C18.5816 5.63201 16.4917 3.50836 13.9304 2.62265C12.3319 2.05042 10.5827 1.99482 8.93401 2.34819C8.90064 2.32901 8.86725 2.30973 8.83375 2.2904L8.78376 2.377L8.83375 2.2904L8.82927 2.28781C8.45576 2.0722 8.0688 1.84883 7.64221 1.71297Z" fill="white" stroke="#3B3839" stroke-width="0.2"/>
</svg>
