<svg viewBox="0 0 150 76" fill="none" xmlns="http://www.w3.org/2000/svg">
<g id="Claro logo">
<path id="operaciones" d="M34.5012 68.4801C34.5012 69.2594 34.3485 69.9476 34.0432 70.5446C33.7378 71.1416 33.3003 71.6018 32.7307 71.9254C32.1656 72.249 31.523 72.4108 30.8029 72.4108C30.0783 72.4108 29.4312 72.2513 28.8615 71.9323C28.2964 71.6132 27.8589 71.1598 27.549 70.5719C27.2391 69.9795 27.0819 69.2981 27.0773 68.528V68.1725C27.0773 67.3886 27.23 66.6982 27.5354 66.1012C27.8407 65.5042 28.2759 65.0439 28.841 64.7203C29.4061 64.3922 30.0555 64.2281 30.7893 64.2281C31.5093 64.2281 32.1496 64.3877 32.7102 64.7067C33.2753 65.0257 33.7128 65.4837 34.0227 66.0807C34.3371 66.6731 34.4966 67.3567 34.5012 68.1315V68.4801ZM32.5187 68.1656C32.5187 67.4091 32.3661 66.8281 32.0607 66.4225C31.76 66.0169 31.3361 65.8141 30.7893 65.8141C30.2242 65.8141 29.7935 66.0169 29.4973 66.4225C29.2056 66.8281 29.0598 67.4091 29.0598 68.1656V68.4801C29.0598 69.2229 29.2102 69.8017 29.5109 70.2164C29.8117 70.6311 30.2424 70.8385 30.8029 70.8385C31.3316 70.8385 31.7486 70.6334 32.0539 70.2233C32.3638 69.8131 32.5187 69.2252 32.5187 68.4596V68.1656ZM39.0115 69.6832V72.3014H37.0291V64.3375H40.4266C41.0737 64.3375 41.6479 64.4537 42.1492 64.6862C42.6505 64.914 43.0356 65.2399 43.3045 65.6637C43.5779 66.0875 43.7146 66.566 43.7146 67.0992C43.7146 67.8877 43.4161 68.5166 42.8191 68.986C42.2221 69.4508 41.4132 69.6832 40.3924 69.6832H39.0115ZM39.0115 68.0905H40.4266C40.8458 68.0905 41.1694 68.0039 41.3973 67.8307C41.6297 67.6575 41.7459 67.4183 41.7459 67.1129C41.7459 66.762 41.6297 66.4795 41.3973 66.2653C41.1694 66.0511 40.8527 65.9417 40.4471 65.9371H39.0115V68.0905ZM51.5199 68.986H48.2318V70.7155H52.101V72.3014H46.2494V64.3375H52.1078V65.9371H48.2318V67.3932H51.5199V68.986ZM57.623 69.5533H56.3857V72.3014H54.4033V64.3375H57.7256C58.7373 64.3375 59.5257 64.5472 60.0908 64.9664C60.6559 65.3811 60.9385 65.969 60.9385 66.7301C60.9385 67.2952 60.82 67.7623 60.583 68.1315C60.3506 68.4961 59.9701 68.7946 59.4414 69.027L61.2461 72.2194V72.3014H59.1133L57.623 69.5533ZM56.3857 67.9606H57.7256C58.5505 67.9606 58.9629 67.6211 58.9629 66.942C58.9629 66.2721 58.5322 65.9371 57.6709 65.9371H56.3857V67.9606ZM68.5523 70.7838H65.4693L64.9088 72.3014H62.9264L66.0777 64.3375H67.9371L71.1158 72.3014H69.1197L68.5523 70.7838ZM66.0025 69.3346H68.0055L67.0006 66.6412L66.0025 69.3346ZM79.967 69.5739C79.9123 70.4443 79.5682 71.1347 78.9348 71.6451C78.3059 72.1556 77.4764 72.4108 76.4465 72.4108C75.3391 72.4108 74.4663 72.0735 73.8283 71.399C73.1949 70.72 72.869 69.7858 72.8508 68.5963V68.1451C72.8508 66.9557 73.1721 66.0055 73.8147 65.2946C74.4618 64.5836 75.3345 64.2281 76.4328 64.2281C77.4628 64.2281 78.2876 64.4856 78.9074 65.0006C79.5272 65.5156 79.8827 66.2265 79.9738 67.1334H77.9982C77.9527 66.2584 77.4309 65.8209 76.4328 65.8209C75.3938 65.8209 74.8583 66.5478 74.8264 68.0016V68.5074C74.8264 69.3232 74.9517 69.9134 75.2023 70.278C75.4576 70.6425 75.8723 70.8248 76.4465 70.8248C76.9432 70.8248 77.3169 70.7246 77.5676 70.524C77.8228 70.3235 77.9618 70.0068 77.9846 69.5739H79.967ZM84.5047 72.3014H82.5223V64.3375H84.5047V72.3014ZM94.5863 68.4801C94.5863 69.2594 94.4337 69.9476 94.1283 70.5446C93.823 71.1416 93.3855 71.6018 92.8158 71.9254C92.2507 72.249 91.6081 72.4108 90.8881 72.4108C90.1635 72.4108 89.5163 72.2513 88.9467 71.9323C88.3816 71.6132 87.9441 71.1598 87.6342 70.5719C87.3243 69.9795 87.1671 69.2981 87.1625 68.528V68.1725C87.1625 67.3886 87.3152 66.6982 87.6205 66.1012C87.9258 65.5042 88.3611 65.0439 88.9262 64.7203C89.4913 64.3922 90.1407 64.2281 90.8744 64.2281C91.5945 64.2281 92.2348 64.3877 92.7953 64.7067C93.3604 65.0257 93.7979 65.4837 94.1078 66.0807C94.4223 66.6731 94.5818 67.3567 94.5863 68.1315V68.4801ZM92.6039 68.1656C92.6039 67.4091 92.4512 66.8281 92.1459 66.4225C91.8451 66.0169 91.4213 65.8141 90.8744 65.8141C90.3093 65.8141 89.8786 66.0169 89.5824 66.4225C89.2908 66.8281 89.1449 67.4091 89.1449 68.1656V68.4801C89.1449 69.2229 89.2953 69.8017 89.5961 70.2164C89.8969 70.6311 90.3275 70.8385 90.8881 70.8385C91.4167 70.8385 91.8337 70.6334 92.1391 70.2233C92.449 69.8131 92.6039 69.2252 92.6039 68.4596V68.1656ZM104.217 72.3014H102.241L99.0967 67.3385V72.3014H97.1143V64.3375H99.0967L102.241 69.3073V64.3375H104.217V72.3014ZM112.248 68.986H108.96V70.7155H112.829V72.3014H106.977V64.3375H112.836V65.9371H108.96V67.3932H112.248V68.986ZM119.561 70.1617C119.561 69.8974 119.449 69.6855 119.226 69.526C119.002 69.3665 118.622 69.2229 118.084 69.0953C117.546 68.9677 117.093 68.8333 116.724 68.692C116.359 68.5462 116.058 68.3753 115.821 68.1793C115.585 67.9834 115.409 67.7578 115.295 67.5026C115.181 67.2428 115.124 66.9352 115.124 66.5797C115.124 65.8961 115.409 65.3333 115.979 64.8912C116.548 64.4492 117.282 64.2281 118.18 64.2281C119.16 64.2281 119.95 64.4515 120.552 64.8981C121.158 65.3401 121.461 65.9462 121.461 66.7164H119.486C119.486 66.4248 119.367 66.1809 119.13 65.985C118.898 65.789 118.583 65.691 118.187 65.691C117.836 65.691 117.551 65.7685 117.332 65.9235C117.113 66.0784 117.004 66.2721 117.004 66.5045C117.004 66.7369 117.118 66.9261 117.346 67.0719C117.574 67.2132 117.952 67.3499 118.481 67.4821C119.543 67.7145 120.301 68.0358 120.757 68.4459C121.217 68.8561 121.447 69.4098 121.447 70.1071C121.447 70.818 121.167 71.3808 120.607 71.7955C120.046 72.2057 119.28 72.4108 118.31 72.4108C117.649 72.4108 117.052 72.3037 116.519 72.0895C115.986 71.8753 115.573 71.5699 115.281 71.1735C114.994 70.777 114.851 70.3076 114.851 69.7653H116.833C116.833 70.1891 116.963 70.4944 117.223 70.6813C117.487 70.8681 117.881 70.9615 118.405 70.9615C118.761 70.9615 119.041 70.8886 119.246 70.7428C119.456 70.597 119.561 70.4033 119.561 70.1617Z" fill="#D62826"/>
<path id="Vector" d="M108.793 0V16.9783H114.981V0H108.793ZM139.015 3.26856L122.3 19.1211L126.687 23.2885L143.402 7.42689L139.015 3.26856ZM20.293 15.5256C20.1685 15.5256 20.044 15.5256 19.9194 15.5256C14.9288 15.4621 10.8002 17.1054 7.3422 20.5193C3.80755 23.8695 2.08333 27.8463 2.08333 32.5857C2.08333 37.2615 3.80755 41.3745 7.3422 44.7157C10.8002 48.0024 14.9383 49.6457 19.9194 49.6457C23.9139 49.6457 27.5826 48.5018 30.7724 46.1684C33.9048 43.7714 35.9642 40.8025 37.0275 37.1344H29.7762C28.8471 38.9049 27.5156 40.3576 25.8488 41.4925C23.9809 42.573 22.0555 43.1359 19.9194 43.1359C16.8637 43.1359 14.2678 42.0645 12.1317 40.0307C9.93811 37.9516 8.87484 35.4911 8.94189 32.5766C8.87484 29.6712 9.94769 27.2017 12.1317 25.1225C14.2678 23.0978 16.8637 22.0264 19.9194 22.0264C22.0555 22.0264 23.9809 22.5894 25.8488 23.7334C27.5156 24.8047 28.8471 26.321 29.7762 28.0914H37.0275C35.9642 24.4325 33.8952 21.3909 30.7724 19.0575C27.6784 16.7423 24.1438 15.5438 20.293 15.5256ZM40.5526 15.5347V49.7819H47.4782V15.5347H40.5526ZM64.4139 22.2262C64.2319 22.2262 64.0403 22.2262 63.8583 22.2353C59.1933 22.1717 55.9365 23.3702 54.0686 25.7126C52.8712 27.1653 52.2773 29.0629 52.0665 31.4689H58.9922C59.1263 30.334 59.5286 29.5714 59.9884 29.072C60.7164 28.1822 61.9138 27.7373 63.6476 27.8009C65.1131 27.7373 66.2435 27.9916 67.0385 28.4364C67.8336 28.8178 68.1688 29.5804 68.2359 30.6518C68.2359 31.5325 67.6995 32.2316 66.6362 32.6765L61.3103 33.4936C58.8485 33.8114 56.856 34.3743 55.3234 35.2005C52.7275 36.6532 51.4631 38.9866 51.5301 42.346C51.4631 44.6794 52.2581 46.5769 53.8578 47.9661C55.2564 49.1101 57.1817 49.7365 59.519 49.8001C63.3123 49.7365 66.3009 48.8468 68.4371 47.0763V49.8001H75.3627V30.4611C75.3627 27.3015 74.1557 25.0953 71.8951 23.9513C69.6632 22.8073 67.1822 22.2353 64.4139 22.2262ZM111.054 22.2897C107.127 22.2897 103.726 23.6244 100.939 26.3391C98.0745 29.0538 96.676 32.3406 96.676 36.1357C96.676 39.9309 98.0745 43.2085 100.939 45.8687C103.736 48.5925 107.127 49.9726 111.054 49.9726C114.981 49.9726 118.439 48.5835 121.304 45.8687C124.101 43.2176 125.499 39.9309 125.499 36.1357C125.499 32.3406 124.101 29.0629 121.304 26.3391C118.439 23.6244 114.981 22.2897 111.054 22.2897ZM96.015 22.3533L94.2141 22.4804L91.5416 23.1795C89.6833 23.8786 88.0165 25.0771 86.618 26.902V23.5518L80.0277 23.4882V49.7729H86.8862V37.2071C86.8862 35.0553 87.1544 33.539 87.7579 32.5948C88.2177 31.587 89.0798 30.7608 90.1527 30.0707C91.35 29.3081 92.6145 28.9267 93.9459 28.9267L96.0725 29.0538L96.015 22.3533ZM110.671 28.8632C110.795 28.8632 110.93 28.8632 111.054 28.8632C113.19 28.7996 114.981 29.4987 116.504 30.9514C117.903 32.3406 118.641 34.0475 118.708 36.1357C118.641 38.0968 117.903 39.8038 116.437 41.2564C114.972 42.7182 113.181 43.3992 111.044 43.3992C108.985 43.3992 107.184 42.7091 105.719 41.2564C104.253 39.8038 103.448 38.0968 103.448 36.1357C103.448 34.0565 104.243 32.3406 105.719 30.9514C107.098 29.5895 108.765 28.8904 110.671 28.8632ZM129.762 29.871V35.7453H148.067V29.871H129.762ZM68.1114 36.3899V39.0411C68.1114 41.3109 67.4408 42.8907 66.186 43.7805C64.8545 44.6612 63.456 45.1061 61.8563 45.1061C60.8601 45.1061 60.0554 44.8519 59.3945 44.3525C58.7335 43.7805 58.3983 42.9634 58.3983 41.7649C58.3983 40.4393 58.9347 39.486 60.065 38.796C60.7355 38.4146 61.8659 38.1059 63.3315 37.9153L66.7895 37.089L68.1114 36.3899Z" fill="#D62826"/>
</g>
</svg>
